<?xml version="1.0" encoding="UTF-8"?>
<svg xmlns="http://www.w3.org/2000/svg" version="1.1" viewBox="0 0 180 180">
  <defs>
    <style>
      .cls-1 {
        fill: none;
      }

      .cls-2 {
        fill: #00adee;
      }

      .cls-3 {
        fill-rule: evenodd;
      }

      .cls-3, .cls-4 {
        fill: #9af49b;
      }

      .cls-5 {
        fill: #2e3191;
      }

      .cls-6 {
        fill: #fff100;
      }
    </style>
  </defs>
  <!-- Generator: Adobe Illustrator 28.6.0, SVG Export Plug-In . SVG Version: 1.2.0 Build 709)  -->
  <g>
    <g id="Layer_1">
      <g>
        <polygon class="cls-6" points="90.5 88 90.5 88 90.5 88 90.5 88"/>
        <path class="cls-1" d="M86.1,93.5l1.3-2.2h0l-1.3,2.2s0,0,0,0Z"/>
        <polygon class="cls-1" points="89.5 87.5 89.9 86.9 89.8 86.9 89.5 87.5 89.5 87.5"/>
        <path class="cls-1" d="M93,81.5l-1.6,2.8h0s0,0,0,0l1.6-2.8s0,0,0,0Z"/>
        <rect class="cls-1" x="89.8" y="86.9" width="0" height="0"/>
        <path class="cls-1" d="M91.4,84.3s0,0,0,0c0,0,0,0,0,0h0Z"/>
        <polygon class="cls-1" points="84.4 96.3 84.4 96.3 86 93.5 84.4 96.3"/>
        <polygon class="cls-1" points="87.3 91.3 86 93.5 87.3 91.3 87.3 91.3"/>
        <polygon class="cls-1" points="87 81.9 87 81.9 87 81.9 87 81.9"/>
        <path class="cls-1" d="M84.4,96.3h0c0,0-3.1,5.4-3.1,5.4l-.8,1.4s0,0,0,0l1.7-2.9,1.7-2.9.6-1s0,0,0,0c0,0,0,0,0,0Z"/>
        <path class="cls-1" d="M84.4,96.3s0,0,0,0c0,0,0,0,0,0l2.1-3.7.8-1.3h0l-1.3,2.2-1.6,2.8Z"/>
        <polygon class="cls-1" points="87.5 91.1 86 93.5 86 93.5 87.5 91.1"/>
        <polygon class="cls-1" points="97.2 74.2 97.2 74.2 96.7 75.1 97.2 74.2"/>
        <path class="cls-1" d="M91.4,84.3s0,0,0,0c0,0,0,0,0,0h0Z"/>
        <path class="cls-5" d="M84.2,91.3h0s0,0,0,.1c0,0,0,0,0-.1Z"/>
        <path class="cls-2" d="M84.4,91.6s0,0,0-.1c0,0,0,0,0,.1Z"/>
        <path class="cls-1" d="M84.2,91.3s0,0,0,.1c0,0,0,0,0-.1Z"/>
        <polygon class="cls-1" points="84.4 96.3 84.4 96.3 86 93.5 84.4 96.3"/>
        <path class="cls-1" d="M84.4,91.6s0,0,0-.1c0,0,0,0,0,.1Z"/>
        <polygon class="cls-1" points="84.2 91.3 84.2 91.3 84.2 91.3 84.2 91.3"/>
        <path class="cls-1" d="M94,93.8s0,0,0-.1c0,0,0,0,0,.1Z"/>
        <polygon class="cls-1" points="93.9 94 93.9 94 93.9 94 93.9 94"/>
        <path class="cls-1" d="M97.8,93.5c0,0,0,.1,0,.2,0,0,0-.1,0-.2Z"/>
        <path class="cls-1" d="M97.6,94s0,0,0,0c0,0,0,0,0,0Z"/>
        <path class="cls-1" d="M97.7,93.7s0,0,0,.1c0,0,0,0,0-.1Z"/>
        <path class="cls-1" d="M97.8,93.5c.2-.7.3-1.4.3-2.2h0c0,.8-.1,1.5-.3,2.2Z"/>
        <path class="cls-1" d="M97.5,94.2s0,0,0,0c0,0,0,0,0,0Z"/>
        <path class="cls-1" d="M97.7,93.8s0,0,0,.1c0,0,0,0,0-.1Z"/>
        <path class="cls-1" d="M97.8,93.5s0,0,0,0c0,0,0,0,0,0Z"/>
        <path class="cls-1" d="M97.6,94c0,0,0,.1,0,.2,0,0,0-.1,0-.2Z"/>
        <path class="cls-1" d="M94,93.8s0,0,0-.1c0,0,0,0,0,.1Z"/>
        <path class="cls-1" d="M97.7,93.7s0,0,0,0c0,0,0,0,0,0Z"/>
        <path class="cls-1" d="M97.4,94.4c0,0,0-.1,0-.2,0,0,0,.1,0,.2Z"/>
        <path class="cls-1" d="M94,93.8h0s0,0,0,.1h0s0,0,0,0c0,0,0,0,0-.1Z"/>
        <path class="cls-1" d="M93.9,94s0,0,0-.1c0,0,0,0,0,.1Z"/>
        <path class="cls-4" d="M90,122.5c-17.9,0-32.5-14.6-32.5-32.5s14.6-32.5,32.5-32.5,32.5,14.6,32.5,32.5-14.6,32.5-32.5,32.5ZM90,58.4c-17.4,0-31.6,14.2-31.6,31.6s14.2,31.6,31.6,31.6,31.6-14.2,31.6-31.6-14.2-31.6-31.6-31.6Z"/>
        <path class="cls-4" d="M90,113.8c-13.1,0-23.8-10.7-23.8-23.8s10.7-23.8,23.8-23.8,23.8,10.7,23.8,23.8-10.7,23.8-23.8,23.8ZM90,67.2c-12.6,0-22.8,10.2-22.8,22.8s10.2,22.8,22.8,22.8,22.8-10.2,22.8-22.8-10.2-22.8-22.8-22.8Z"/>
        <g>
          <polygon class="cls-3" points="74.2 110.2 72.3 112.4 73.1 113.1 72.8 113.6 70.6 111.8 71 111.3 71.8 112 73.6 109.7 74.2 110.2"/>
          <path class="cls-3" d="M69.1,110.4l-.5-.5,1.4-1.3c.2-.2.4-.3.4-.4.2-.3.2-.5-.1-.8-.3-.3-.5-.3-.7-.2-.1,0-.3.2-.5.4l-1.4,1.3-.5-.5,1.4-1.2c.3-.2.4-.4.5-.5.2-.2.4-.2.6-.2.3,0,.7.2,1,.5.4.4.5.8.5,1.2,0,.2,0,.3-.2.4-.1.2-.3.4-.6.7l-1.4,1.3ZM68.5,110.1l-.4.4-.4-.4.4-.4.4.4ZM67.8,109.3l-.4.4-.4-.4.4-.4.4.4Z"/>
          <path class="cls-3" d="M68.7,104.5l-3,1.8-.8-1.3c-.2-.3-.3-.5-.3-.6,0-.2,0-.5,0-.7,0-.2.2-.3.4-.4.5-.3.9-.2,1.3.3,0-.2,0-.4,0-.6,0-.1.1-.3.2-.5l.4-.7.4.7-.4.8c-.1.2-.2.4-.2.4,0,.2,0,.3,0,.4,0,0,0,.2.2.3h0c0,.1,1.3-.6,1.3-.6l.4.6ZM66.6,104.9l-.3-.5c-.1-.2-.2-.4-.2-.4-.1-.2-.2-.2-.4-.2,0,0-.2,0-.3,0-.2.1-.3.3-.2.5,0,0,.1.2.3.5l.3.5.8-.5Z"/>
          <polygon class="cls-3" points="66.6 100.7 63.3 101.9 63 101.3 64.5 100.7 62.5 99.9 62.2 99 63.9 99.8 65.4 97.7 65.8 98.6 64.6 100.1 65.3 100.4 66.3 100 66.6 100.7"/>
          <path class="cls-3" d="M65.1,96.4l-3.5.7v-.7c-.1,0,3.3-.7,3.3-.7v.7ZM61.3,97.1h-.6c0,.1-.1-.5-.1-.5h.6c0-.1.1.5.1.5Z"/>
          <polygon class="cls-3" points="64.5 93.1 63 93.2 61.1 94.7 61 93.8 62.3 92.9 60.9 92.2 60.8 91.4 63 92.5 64.4 92.4 64.5 93.1"/>
          <polygon class="cls-3" points="64.3 89.7 60.8 89.4 61 86.8 61.5 86.9 61.4 88.8 62.2 88.8 62.3 87.1 62.9 87.1 62.8 88.9 63.7 88.9 63.9 87 64.5 87 64.3 89.7"/>
          <path class="cls-3" d="M63.4,83.2c-.6-.2-1-.5-1.2-.9-.2-.4-.2-.8,0-1.3.2-.5.5-.9.9-1.1.4-.2.9-.2,1.4,0,.5.2.9.4,1.1.8.2.4.3.8,0,1.4-.2.5-.5.9-.9,1.1-.4.2-.9.2-1.4,0ZM63.6,82.5c.3.1.6.1.9,0,.3,0,.5-.3.6-.6.1-.3,0-.6-.1-.8-.2-.2-.4-.4-.7-.5-.3-.1-.6-.1-.9,0-.3,0-.5.3-.6.6-.1.3,0,.6.1.8.2.2.4.4.7.5Z"/>
          <path class="cls-3" d="M63.5,77.6l.6-1.1c.1-.3.3-.4.4-.6.3-.3.7-.4,1.2-.3.2,0,.5.1.8.3.5.3.9.6,1,1.1,0,.2,0,.4,0,.6,0,.2-.1.4-.2.6l-.6,1.2-3.1-1.7ZM64.4,77.3l2.1,1.1.2-.5c0-.2.2-.3.2-.4,0-.2,0-.5-.2-.6-.1-.1-.3-.2-.5-.4-.4-.2-.7-.3-1-.2-.1,0-.2.1-.3.2,0,0-.2.2-.3.5l-.2.3Z"/>
          <path class="cls-3" d="M70.6,73.1l-.5.6-.8-.2-.8,1.1.5.7-.5.6-2-3.2.5-.6,3.7,1ZM68.7,73.3l-1.3-.4.8,1.2.6-.8Z"/>
          <polygon class="cls-3" points="71.5 72.3 69.1 69.7 69.6 69.2 71.6 71.3 72.9 70.1 73.3 70.6 71.5 72.3"/>
          <path class="cls-3" d="M77,68l-.6.4-.7-.5-1.2.8.2.8-.6.4-.8-3.7.6-.4,3.1,2.2ZM75.1,67.5l-1.1-.8.3,1.4.8-.5Z"/>
          <path class="cls-3" d="M77.9,67.4l-1.4-3.2,1.4-.6c.3-.1.5-.2.6-.2.2,0,.5,0,.7.1.2.1.3.3.4.4.2.5,0,.9-.4,1.3.2,0,.4,0,.6.2.1,0,.3.2.5.3l.7.5-.8.3-.8-.5c-.2-.1-.4-.2-.4-.2-.2,0-.3-.1-.4-.1,0,0-.2,0-.3.1h-.1c0,0,.6,1.4.6,1.4l-.7.3ZM77.8,65.2l.5-.2c.2-.1.4-.2.4-.2.2,0,.3-.2.3-.3,0,0,0-.2,0-.3,0-.2-.3-.3-.5-.2,0,0-.2,0-.5.2l-.5.2.4.8Z"/>
          <polygon class="cls-3" points="84.8 65 83 61.7 83.8 61.6 85.1 64 85.5 61.3 86.3 61.2 85.6 64.9 84.8 65"/>
          <polygon class="cls-3" points="88.2 64.5 88.2 61 90.8 61 90.8 61.6 88.9 61.6 88.9 62.4 90.7 62.3 90.7 62.9 88.9 63 88.9 63.9 90.9 63.9 90.9 64.5 88.2 64.5"/>
          <path class="cls-3" d="M95.2,61.5l1.4.3c.2,0,.4.1.5.1.2,0,.3.2.4.3.2.2.3.5.2.8,0,.2-.1.3-.2.4-.1.1-.3.2-.4.2.2.1.3.2.4.4,0,.2,0,.4,0,.6,0,.2-.1.3-.2.4-.1.1-.2.2-.4.3-.1,0-.3,0-.5,0-.1,0-.4,0-.8-.2l-1.2-.3.9-3.4ZM95.8,62.2l-.2.8h.5c.3.2.4.2.5.2.3,0,.4,0,.5-.3,0-.2,0-.4-.3-.5,0,0-.3,0-.6-.2h-.4ZM95.4,63.6l-.2.9.6.2c.2,0,.4,0,.5,0,.2,0,.4-.1.5-.3,0-.2,0-.4-.2-.5,0,0-.3-.1-.6-.2h-.6Z"/>
          <path class="cls-3" d="M99.1,64.4c.2-.5.6-.9,1-1.1.4-.2.8-.1,1.3,0,.5.2.8.5,1,1,.1.4,0,.9-.1,1.4-.2.5-.5.8-.9,1-.4.2-.9.2-1.4,0-.5-.2-.8-.5-1-1-.1-.4,0-.9.1-1.4ZM99.8,64.6c-.1.3-.2.6-.1.9,0,.3.2.5.5.6.3.1.6.1.8,0,.2-.1.4-.4.5-.7.1-.3.2-.6.1-.9,0-.3-.2-.5-.5-.6-.3-.1-.6-.1-.8,0-.2.1-.4.4-.5.7Z"/>
          <path class="cls-3" d="M102.7,68l1.9-3,1.3.8c.3.2.4.3.5.4.2.2.3.4.3.6,0,.2,0,.4-.2.6-.3.5-.7.6-1.3.3,0,.2.1.4.2.6,0,.1,0,.3,0,.6v.8s-.7-.5-.7-.5v-.9c0-.3,0-.4,0-.5,0-.2,0-.3-.1-.4,0,0-.1-.1-.3-.2h-.1c0,0-.8,1.2-.8,1.2l-.6-.4ZM104.4,66.7l.4.3c.2.1.3.2.4.2.2,0,.3.1.4,0,0,0,.1,0,.2-.2.1-.2.1-.4,0-.6,0,0-.2-.1-.4-.3l-.5-.3-.5.8Z"/>
          <path class="cls-3" d="M106.9,69.5l.6.4c-.2.4-.2.7,0,1,.1.1.3.2.4.2.2,0,.3,0,.4-.1.1-.1.1-.3,0-.5,0,0-.1-.2-.3-.5-.2-.3-.3-.6-.3-.8,0-.3,0-.5.2-.7.1-.1.3-.2.5-.3.2,0,.4,0,.6,0,.2,0,.4.2.6.4.3.3.5.5.5.8,0,.3,0,.6-.3.9l-.5-.5c.1-.2.1-.3.1-.4,0-.1-.1-.2-.2-.4-.2-.1-.3-.2-.4-.2,0,0-.2,0-.2,0,0,0,0,.1,0,.2,0,.1.1.3.3.6.2.3.4.6.4.7.1.4,0,.7-.2,1-.1.2-.3.3-.5.3-.2,0-.4,0-.6,0-.2,0-.4-.2-.7-.4-.6-.6-.7-1.2-.2-1.9Z"/>
          <path class="cls-3" d="M111.1,75.9l-.5-.6.5-.7-.8-1.1-.8.3-.5-.6,3.6-1,.5.6-2,3.3ZM111.4,74l.8-1.2-1.3.4.6.8Z"/>
          <polygon class="cls-3" points="111.7 76.9 114.8 75.2 115.1 75.9 112.6 77.2 113.4 78.8 112.9 79.1 111.7 76.9"/>
          <path class="cls-3" d="M114.4,83.3l-.3-.7.7-.6-.5-1.3h-.9s-.2-.7-.2-.7l3.8.2.2.7-2.9,2.5ZM115.3,81.6l1.1-.9h-1.4s.3.9.3.9Z"/>
          <path class="cls-3" d="M114.7,84.4l3.5-.6.2,1.5c0,.3,0,.5,0,.7,0,.3-.1.4-.3.6-.1.1-.3.2-.5.2-.6,0-.9-.2-1.1-.8,0,.2-.2.4-.3.5,0,0-.2.2-.4.4l-.6.5v-.8c-.1,0,.5-.6.5-.6.2-.2.3-.3.3-.3.1-.1.2-.3.2-.4,0,0,0-.2,0-.4h0c0-.1-1.5,0-1.5,0v-.7ZM116.8,84.8v.5c.1.3.1.4.2.4,0,.2.1.3.2.4,0,0,.2,0,.3,0,.2,0,.4-.2.4-.4,0,0,0-.2,0-.5v-.5c0,0-1,.1-1,.1Z"/>
          <path class="cls-3" d="M118.9,91.1v1.4c-.1.2-.2.4-.2.5,0,.2-.1.3-.2.5-.2.2-.4.3-.7.3-.2,0-.3,0-.4-.2-.1-.1-.2-.2-.3-.4,0,.2-.2.4-.3.5-.2.1-.3.2-.6.1-.2,0-.3,0-.5-.2-.1,0-.3-.2-.3-.3,0-.1-.1-.3-.1-.5,0-.1,0-.4,0-.9v-1.2c.1,0,3.6.3,3.6.3ZM118.2,91.7h-.8c0,0,0,.4,0,.4,0,.3,0,.4,0,.5,0,.3.1.4.4.4.2,0,.4,0,.4-.3,0,0,0-.3,0-.6v-.4ZM116.8,91.6h-.9c0,0,0,.6,0,.6,0,.2,0,.4,0,.5,0,.2.2.4.4.4.2,0,.4,0,.5-.3,0,0,0-.3.1-.6v-.6Z"/>
          <path class="cls-3" d="M114.8,95l3.5.7v.7c-.1,0-3.6-.7-3.6-.7v-.7ZM118.6,95.8h.6c0,.1-.1.8-.1.8h-.6c0-.1.1-.8.1-.8Z"/>
          <path class="cls-3" d="M114.3,97.4l3.3,1.3-.5,1.4c-.1.3-.2.5-.3.6-.1.2-.3.3-.5.4-.2,0-.4,0-.6,0-.5-.2-.7-.6-.6-1.2-.2.1-.3.2-.5.3-.1,0-.3,0-.6.1l-.8.2.3-.8.9-.2c.3,0,.4,0,.4-.1.2,0,.3-.1.4-.2,0,0,.1-.2.2-.3h0c0-.1-1.4-.7-1.4-.7l.3-.7ZM115.9,98.8l-.2.5c0,.2-.1.4-.2.4,0,.2,0,.3,0,.4,0,0,.1.1.2.2.2,0,.4,0,.5-.2,0,0,0-.2.2-.5l.2-.5-.8-.3Z"/>
          <polygon class="cls-3" points="112.7 101.4 115.7 103.1 115.4 103.7 112.8 102.3 112 103.9 111.5 103.6 112.7 101.4"/>
          <path class="cls-3" d="M110.8,104.6l2.9,2.1-.4.6-2.9-2.1.4-.6ZM113.9,106.8l.5.4-.4.5-.5-.4.4-.5Z"/>
          <path class="cls-3" d="M109.1,108.6l.4.4-1.1,1.1-1-1c0-.2,0-.5.2-.8.1-.3.3-.5.5-.7.2-.3.5-.4.8-.5.3-.1.6,0,.9,0,.3.1.6.3.8.5.3.2.4.5.5.8.1.3.1.6,0,1,0,.2-.2.5-.5.7-.6.6-1.2.7-1.8.4l.4-.6c.3.2.7.1,1-.2.2-.2.3-.5.3-.8,0-.3-.2-.5-.4-.8-.3-.3-.5-.4-.8-.4-.3,0-.6,0-.8.3-.2.2-.3.5-.4.8l.3.3.6-.6ZM111.4,109.8l.2-.2s0,0,0,0c.1.1.2.2.2.3,0,.1,0,.2-.1.4,0,0-.2.1-.4.2-.1,0-.2.1-.3.2,0,0,0,.2,0,.3l-.2.2c-.3-.3-.3-.5-.1-.7,0,0,0,0,.1-.1,0,0,.1,0,.3-.1.1,0,.2-.1.3-.2,0,0,0-.2,0-.3Z"/>
          <path class="cls-3" d="M106.1,109.7l2.2,2.7-.6.4-2.2-2.7.6-.4ZM108.5,112.7l.4.5-.5.4-.4-.5.5-.4Z"/>
        </g>
        <g>
          <polygon class="cls-3" points="82.6 115.1 85.9 115.8 85.8 116.6 84.6 116.4 84.1 119.1 83 118.8 83.6 116.2 82.4 115.9 82.6 115.1"/>
          <path class="cls-3" d="M86.1,117.7c0-.6.2-1,.6-1.3.3-.3.8-.4,1.4-.4.6,0,1,.2,1.3.6.3.3.4.8.4,1.4,0,.4-.1.8-.3,1-.2.3-.4.5-.7.6-.3.1-.6.2-1,.2-.4,0-.7-.1-1-.3-.3-.1-.5-.4-.6-.7-.1-.3-.2-.6-.2-1.1ZM87.2,117.7c0,.4,0,.6.1.8.1.2.3.3.5.3.2,0,.4,0,.6-.2.1-.1.2-.4.3-.8,0-.3,0-.6-.2-.8-.1-.2-.3-.3-.5-.3-.2,0-.4,0-.6.2-.1.1-.2.4-.3.8Z"/>
          <path class="cls-3" d="M90.6,116.1l2.1-.2c.3,0,.6,0,.8.2.2.2.3.4.3.6,0,.2,0,.4-.2.6,0,.1-.2.2-.4.3.3,0,.5.1.6.3.1.1.2.3.2.6,0,.2,0,.4,0,.5,0,.2-.2.3-.3.4,0,0-.2.1-.4.2-.2,0-.4,0-.5,0l-1.9.2-.3-3.6ZM91.9,117.4h.5c.2,0,.3,0,.4-.2,0,0,0-.2,0-.3,0-.1,0-.2-.1-.2,0,0-.2,0-.4,0h-.5s0,.7,0,.7ZM92,118.8h.6c.2,0,.3-.1.4-.2,0,0,.1-.2,0-.3,0-.1,0-.2-.1-.2,0,0-.2,0-.4,0h-.6s0,.8,0,.8Z"/>
          <path class="cls-3" d="M94.6,115.6l2-.5c.3,0,.6,0,.8,0,.2.1.4.3.4.6,0,.2,0,.4,0,.6,0,.1-.2.2-.3.3.3,0,.5,0,.6.2.2.1.3.3.3.5,0,.2,0,.4,0,.5,0,.2-.1.3-.3.4,0,0-.2.1-.4.2-.2,0-.4.1-.5.2l-1.9.5-.9-3.5ZM96,116.7h.5c.2-.2.3-.2.3-.3,0,0,0-.2,0-.3,0-.1,0-.2-.2-.2,0,0-.2,0-.4,0h-.5c0,.1.2.8.2.8ZM96.4,118.1h.6c.2-.2.3-.2.4-.3,0,0,0-.2,0-.3,0-.1,0-.2-.2-.2,0,0-.2,0-.4,0h-.5c0,.1.2.8.2.8Z"/>
        </g>
        <g>
          <path class="cls-4" d="M76,96.4c-4.6-7.9-1.9-18.1,6-22.7,5-2.9,10.9-2.9,15.7-.5l-5,8.7c-1.8-.7-3.8-.6-5.6.5-3.1,1.8-4.1,5.8-2.3,8.9s.9,1.3,1.5,1.8l-5.1,8.9c-2.1-1.4-3.9-3.2-5.2-5.5Z"/>
          <path class="cls-4" d="M90.3,74.6c9.2-.1,16.7,7.2,16.8,16.4s-2.8,10.9-7.2,13.9l-5.2-8.6c1.4-1.2,2.4-3,2.3-5.1,0-3.6-3-6.4-6.6-6.4s-1.6.2-2.3.5l-5.3-8.8c2.2-1.2,4.7-1.8,7.4-1.9Z"/>
          <path class="cls-4" d="M102.5,98.4c-4.6,7.9-14.7,10.7-22.7,6.1-5-2.9-7.9-8-8.3-13.4h10.1c.3,1.9,1.4,3.6,3.2,4.6,3.1,1.8,7.1.7,8.8-2.4s.7-1.5.8-2.2h10.3c-.1,2.5-.9,5-2.2,7.3Z"/>
          <path class="cls-4" d="M73.8,88.8h10.2c.1.8.4,1.7.8,2.4s.9,1.3,1.5,1.8l-5.1,8.9c-2.1-1.4-3.9-3.2-5.2-5.5s-2.1-5-2.2-7.6Z"/>
        </g>
      </g>
    </g>
  </g>
</svg>