<?xml version="1.0" encoding="UTF-8"?>
<svg xmlns="http://www.w3.org/2000/svg" version="1.1" viewBox="0 0 180 180">
  <defs>
    <style>
      .cls-1 {
        fill: #9af49b;
        fill-rule: evenodd;
      }
    </style>
  </defs>
  <!-- Generator: Adobe Illustrator 28.6.0, SVG Export Plug-In . SVG Version: 1.2.0 Build 709)  -->
  <g>
    <g id="Layer_1">
      <g>
        <path class="cls-1" d="M30.3,89.8c.8-2.3,3.1-4.6,5.6-5,2.1-.3,4.1-.4,5.6.7-.4.8-.8,1.7-.8,1.7,0,0-.7-.4-1.1-.5-.8-.3-2-.4-2.7.1l-.3.5-1.7,6.5c0,.2,0,.5.1.7.4.4,1.1.2,1.6.2l.2-.2,1.2-4.4h5s0,.1,0,.1c-.5,1.9-.9,3.9-1.5,5.8h-.1c0,.1-7.9,0-7.9,0-1.2,0-2.3-.4-2.9-1.4,0-.3-.4-.5-.4-.8h0c-.3-1.3-.3-3,0-4.3h0Z"/>
        <path class="cls-1" d="M89.6,89.7c.7,1.4,1.7,3.1,2.3,4.6v.2c-2.1,2-4.1,4.6-6.8,5.3-.3,0-.3-.2-.4-.4,0-1.4,1.5-2,2.1-3.2.5-1,.7-2.2,1.2-3.2.5-1.1.8-2.2,1.4-3.2l.2-.2h0Z"/>
        <path class="cls-1" d="M85.4,100.4c4.5-1.5,7.1-6.7,11.3-9,.4-.2.7-.6,1.1-.6.1.2.3.4.3.6-3,1.7-5.7,4.4-8.2,7-1.3,1.2-2.7,2-4.3,2.7-.2-.2-.2-.4-.3-.6h0Z"/>
        <path class="cls-1" d="M88.4,84.1c1.6-1,3.2-1.9,4.7-2.7-.2.8-.3,1.7,0,2.6h0c0,.1-3.3,2.1-3.3,2.1h-.2c-.4-.6-.8-1.2-1.2-1.8h0Z"/>
        <path class="cls-1" d="M89.9,86.8c1.1,0,2,.2,2.9.2h0c-.9.6-1.9,1.2-2.9,1.6,0-.6.1-1.2,0-1.8h0Z"/>
        <path class="cls-1" d="M90.2,89.4c1.1-.6,2.2-1.3,3.4-1.8.3.8.8,1.6,1.4,2.2.7-.2.8-1.1,1.4-1.4l1.1,1.7h0c-1.6,1.2-3.3,2.2-4.8,3.7h-.2c-.8-1.4-1.6-2.9-2.3-4.4h0Z"/>
        <path class="cls-1" d="M93.6,84.7v1.7c-.8,0-1.8,0-2.7,0h0c0,0,2.6-1.6,2.6-1.6h.2Z"/>
        <path class="cls-1" d="M100,84.6h5.2l1.3,3.9s0,0,0,.1c1.2-1.1,3.3-4,3.3-4h2.7v.2l-5.2,6.5s-.9,3.2-1.4,4.9h-.4c0,.1-5.1.1-5.1.1h0c0-.1,1.2-5,1.2-5l-2-6.4s.3,0,.4-.2h0Z"/>
        <path class="cls-1" d="M113.5,84.7h.1c0,0,9.3,0,9.3,0,0,0,.2,0,.2,0l-.4,2h-4.2s-.2.3-.2.3l-.4,2.2h.1c0,0,2.5,0,2.5,0l-.5,2.3h-2.8s-.4,1.7-.6,2.5h.1c1.3,0,2.6,0,3.9,0h.1c0,.8-.3,1.3-.5,1.9h-.3c0,.1-9.3.1-9.3.1l2.8-11.6h0Z"/>
        <path class="cls-1" d="M48.7,85.2c2.2-1.2,5.3-1,7.2.2,1.6,1.4,2,3.5,1.5,5.5-.6,2.3-2.6,4.9-5.1,5.4-2.3.6-5.1.3-6.6-1.6-1.4-1.7-1.1-4.5,0-6.3.6-1.3,1.9-2.5,3.1-3.2h0ZM49.5,93.6c-.1.3-.1.8.1,1.1.2.2.6.2.9.2.3-.1.6-.3.8-.6.6-2,1-4.2,1.5-6.2,0-.6.6-1.3-.1-1.6-.5-.1-1,0-1.4.3-.5,1-.6,2.1-.9,3.1-.3,1.3-.6,2.5-1,3.8h0Z"/>
        <path class="cls-1" d="M62.3,85.6c2.2-1.4,5.2-1.6,7.4-.6,1.7.8,2.3,2.7,2.4,4.5,0,2.7-1.6,5.2-4,6.4l-1.5.6c-2.2.3-4.6.2-6.1-1.5-1.5-1.4-1.6-3.9-.9-5.7.4-1.5,1.5-2.7,2.8-3.6h0ZM64,94.5c.3.2.6.3.9.2.3-.1.6-.4.8-.7l1-4.3c0-.2,0-.5.2-.7.1-.9.6-1.6.5-2.5-.1-.1-.2-.4-.4-.4-.5-.1-.9,0-1.2.3-.8,2.2-1.1,4.5-1.7,6.8,0,.4-.3.9,0,1.3h0Z"/>
        <path class="cls-1" d="M75.2,84.7h.3c0,0,7.7,0,7.7,0,1.2.2,2.4,1.4,2.8,2.5.8,2.6-.2,5.2-1.8,7.1-1.2,1.2-2.7,2-4.5,2-2.8,0-7.2,0-7.2,0,0,0,2.2-9.5,2.7-11.6h0ZM78,94.4c.4.2.8,0,1.2,0,.4,0,.5-.4.7-.7,0,0,1.9-6.6,1.6-7.1-.3-.3-.8-.2-1.5-.2,0,.1,0,.2-.1.4l-1.9,7.6h0Z"/>
        <path class="cls-1" d="M94.7,80.3c1.7-1.5,4.2-1,6.5-1,2.9.3,6,.2,8.8-.3,0,.9-.6,1.6-1.3,2.1-2,1.1-4.5.7-6.8.6h0c0,.1.9.5.9.5,0,.3-.3.5-.6.6-.4.1-.8.1-1.2.3.1.1.4,0,.4.3-.7.7-1.8.7-2.6.4h-.1c0,.8,0,1.6-.4,2.2-.3,0-.5-.2-.7-.3-.2.4-.1,1.1-.5,1.5-.3,0-.5-.4-.8-.5-.3.7-.5,1.5-1.1,2.1-.5,0-.8-.7-1-1.1-.2-.9-.3-1.9,0-2.8-.5-.8-.9-1.9-.5-2.9.1-.6.5-1.2,1-1.5h0ZM95.6,83.4h-.7c0,0,0,0,0,0,.5,0,.4.7.9.9l-.2-.9.4-1.7c.3.1.6.2.9,0,.3-.4.8-.4,1.2-.4.4,0,.3-.8.8-.6.2,0,.5-.2.4-.3-.5.3-1-.4-1.3.2-.3.3-.7.2-1.1.3-.1.4-.6.7-1,.7l-.4,1.7h0Z"/>
        <path class="cls-1" d="M128,84.6h4.6s.2.2.2.2l1.2,11.5c0,0-5.2,0-5.2,0l-.2-1.8h-4s-1.2,1.8-1.2,1.8h-2.3s5.8-9.9,6.9-11.7h0ZM125.9,92.4h2.4s-.4-3.5-.4-3.5l-2.1,3.5h0Z"/>
        <path class="cls-1" d="M138,84.7h.2c0-.1,9.1-.1,9.1-.1,1,0,1.8.8,2.3,1.6.6,1.1.5,2.5,0,3.6-.5.8-1.3,1.6-2.1,2.1.3,1.3.6,2.7.9,4,0,.2,0,.3-.2.3h-5.1s-.2,0-.2,0l-.9-3.3c0-.1-.2,0-.4,0l-.2.2-.8,3.1h-.2c0,.1-5.2.1-5.2.1,0-.2,0-.4,0-.6.9-3.6,1.9-7.3,2.7-10.9h0ZM142,90.7c.2.2.7.2.9.1.3,0,.5-.4.6-.7l.7-2.8c.2-.3,0-.6-.1-.9-.3-.2-.8-.2-1.1,0l-1,4.2h0Z"/>
      </g>
    </g>
  </g>
</svg>