<?xml version="1.0" encoding="UTF-8"?>
<svg xmlns="http://www.w3.org/2000/svg" version="1.1" viewBox="0 0 180 180">
  <defs>
    <style>
      .cls-1 {
        fill: #9af49b;
      }
    </style>
  </defs>
  <!-- Generator: Adobe Illustrator 28.6.0, SVG Export Plug-In . SVG Version: 1.2.0 Build 709)  -->
  <g>
    <g id="Layer_1">
      <g>
        <g>
          <path class="cls-1" d="M124.7,104.6h-3.1c-.1-.5-.2-.9-.4-1.1-.3-.3-.9-.5-1.7-.5s-1.3.1-1.6.4c-.2.2-.3.5-.3.8,0,.5.6.8,1.9,1.1,1.5.3,2.5.6,3.1.8.2,0,.3.1.4.2,1.3.6,1.9,1.5,1.9,2.8s-.6,2.6-1.9,3.3c-.2,0-.3.2-.5.2-.8.3-1.8.5-2.8.5-1.6,0-2.9-.3-3.9-.8-.6-.4-1.1-.8-1.4-1.4-.3-.5-.5-1.2-.5-1.9h3.2c0,.5.2,1,.6,1.3.4.3,1.1.5,2,.5s1.2-.1,1.6-.4c.3-.2.4-.5.4-.8,0-.5-.6-.9-1.9-1.2-1.9-.4-3.1-.7-3.5-1-1.3-.6-1.9-1.5-1.9-2.8s.3-1.9,1-2.6c.8-.9,2.1-1.3,3.8-1.3s2.5.2,3.3.6c0,0,.1,0,.2.1.6.3,1.1.8,1.4,1.3.3.5.5,1.2.5,1.9h0Z"/>
          <path class="cls-1" d="M123.3,96.8c0,0,.1.2.1.3s0,.3-.2.4-.2.2-.4.2c0,0,.1,0,.2.1l.3.4.2.4h-.4l-.2-.3c-.1-.2-.2-.3-.3-.4h0s-.3-.1-.3-.1h-.2v.8h-.3v-2h.8c.2,0,.3,0,.4,0,.1,0,.2.1.3.2h0ZM123,97.1c0,0,0-.1,0-.2,0,0,0,0-.1-.1,0,0-.1,0-.2,0h-.5v.6h.5c.1,0,.2,0,.3,0,0,0,.1-.1.1-.2h0Z"/>
          <path class="cls-1" d="M124.5,97.5c0,.3,0,.6-.2.9-.2.3-.4.5-.7.7-.3.2-.6.2-.9.2h0c-.3,0-.6,0-.9-.2-.3-.2-.5-.4-.7-.7s-.2-.6-.2-.9,0-.6.2-.9c.2-.3.4-.5.7-.7.3-.2.6-.2.9-.2h0c.3,0,.6,0,.9.2.3.2.5.4.7.7.2.3.2.6.2.9h0ZM124.2,97.5c0-.3,0-.5-.2-.8-.1-.2-.3-.4-.6-.6s-.5-.2-.7-.2h0c-.3,0-.5,0-.7.2-.2.1-.4.3-.6.6-.1.2-.2.5-.2.8s0,.5.2.8c.1.2.3.4.6.6.2.1.5.2.8.2h0c.3,0,.5,0,.8-.2.2-.1.4-.3.6-.6.1-.2.2-.5.2-.8h0Z"/>
          <polygon class="cls-1" points="106.6 82.6 115.2 97 106.6 97 101.3 97 93.1 83.3 86.8 72.8 93.1 69.1 97 66.7 106.6 82.6 106.6 82.6"/>
          <path class="cls-1" d="M110,107.7v-1.3c-.3-1.6-1.7-2.8-3.4-2.8h0c-1.9,0-3.4,1.5-3.4,3.4s1.5,3.4,3.4,3.4h0c1.7,0,3.1-1.2,3.4-2.8h0ZM112.8,107v5.9h-2.9v-.7c-1,.6-2.1,1-3.4,1h0c-3.4,0-6.2-2.8-6.2-6.3s2.8-6.2,6.2-6.3h0c1.2,0,2.4.4,3.4,1v-.7h2.9v6h0Z"/>
          <path class="cls-1" d="M96.5,107.7v-1.3c-.3-1.6-1.7-2.8-3.4-2.8h0c-1.9,0-3.4,1.5-3.4,3.4s1.5,3.4,3.4,3.4h0c1.7,0,3.1-1.2,3.4-2.8h0ZM99.3,107v5.9h-2.9v-.7c-1,.6-2.1,1-3.4,1h0c-3.4,0-6.2-2.8-6.2-6.3s2.8-6.2,6.2-6.3h0c1.2,0,2.4.4,3.4,1v-4.7h2.9v10h0Z"/>
          <polygon class="cls-1" points="93.1 91.4 96.4 97 93.1 97 82.6 97 74.9 84.2 74.5 83.6 74.9 83.4 84.7 77.5 93.1 91.4 93.1 91.4"/>
          <polygon class="cls-1" points="82.6 100.8 85.7 100.8 85.7 112.9 82.6 112.9 82.6 100.8 82.6 100.8"/>
          <polygon class="cls-1" points="82.6 97.1 85.7 97.1 85.7 99.8 82.6 99.8 82.6 97.1 82.6 97.1"/>
          <path class="cls-1" d="M78.3,107.7v-1.3c-.3-1.6-1.7-2.8-3.4-2.8h0c-1.9,0-3.4,1.5-3.4,3.4s1.5,3.4,3.4,3.4h0c1.7,0,3.1-1.2,3.4-2.8h0ZM81.1,107v5.9h-2.9v-.7c-1,.6-2.1,1-3.4,1h0c-3.4,0-6.2-2.8-6.2-6.3s2.8-6.2,6.2-6.3h0c1.2,0,2.4.4,3.4,1v-4.7h2.9v10h0Z"/>
        </g>
        <g>
          <polygon class="cls-1" points="74.9 92.3 77.7 97 74.9 97 63.8 97 62.2 94.4 72.5 88.3 74.9 92.3 74.9 92.3"/>
          <path class="cls-1" d="M64.6,107.7v-1.3c-.3-1.6-1.7-2.8-3.4-2.8h0c-1.9,0-3.4,1.5-3.4,3.4s1.5,3.4,3.4,3.4h0c1.7,0,3.1-1.2,3.4-2.8h0ZM67.5,107v5.9h-2.9v-.7c-1,.6-2.1,1-3.4,1h0c-3.4,0-6.2-2.8-6.2-6.2s2.8-6.2,6.2-6.3h0c1.2,0,2.4.4,3.4,1v-.7h2.9v5.9h0Z"/>
        </g>
      </g>
    </g>
  </g>
</svg>