<?xml version="1.0" encoding="UTF-8"?>
<svg xmlns="http://www.w3.org/2000/svg" version="1.1" viewBox="0 0 180 180">
  <defs>
    <style>
      .cls-1 {
        fill: #9af49b;
        fill-rule: evenodd;
      }
    </style>
  </defs>
  <!-- Generator: Adobe Illustrator 28.6.0, SVG Export Plug-In . SVG Version: 1.2.0 Build 709)  -->
  <g>
    <g id="Layer_1">
      <g>
        <path class="cls-1" d="M56.7,91.4c0-.5-.2-.9-.5-1.3s-.3-.2-1.1-.2c.5-.2.7-.2.9-.3.3-.3.3-.7.3-1.3,0-.9-.2-1.3-.7-1.6-.3-.2-.7-.2-1.6-.2h-6.1v6.8h6.4c.7,0,1.3,0,1.4-.2.5-.4.9-.9.9-1.8h0ZM54.4,88.7c0,.2-.2.3-.2.3-.2.2-.3.2-.7.2h-3.5v-1.3h4.1c.2.2.3.4.3.7h0ZM54.5,91.2c0,.3,0,.5-.2.5h-4.5v-1.3h3.7c.3,0,.5,0,.5.2.3,0,.3.2.3.5h0Z"/>
        <path class="cls-1" d="M67.9,93.4l-3.7-6.8h-2.9l-3.7,6.8h2.3l.7-1.3h4.3l.7,1.3h2.3ZM64.2,90.7h-2.9l1.4-2.7,1.4,2.7h0Z"/>
        <polygon class="cls-1" points="78.1 93.4 78.1 86.6 76.1 86.6 76.1 91.8 72 86.6 68.8 86.6 68.8 93.4 70.8 93.4 70.8 88.2 74.9 93.4 78.1 93.4"/>
        <path class="cls-1" d="M88.4,91.1v-.2h-1.9c0,.3-.2.5-.3.7-.3.2-.5.2-2.1.2s-2.1-.2-2.1-1.8v-.9c0-.5.3-.9.7-.9h1.8c1.8,0,1.9,0,1.9.7h1.9v-.2c0-1.3-.2-1.8-1.1-1.9-.5-.2-1.3-.3-3.4-.3s-2.5.2-3.2.5c-.7.3-.9,1.1-.9,2.9s.2,2.7.9,3.2c.5.3,1.3.3,3.2.3,3,0,3.4,0,4.1-.3.4-.4.5-.9.5-2h0Z"/>
        <polygon class="cls-1" points="90 93.4 92.1 93.4 92.1 86.6 90 86.6 90 93.4"/>
        <polygon class="cls-1" points="105.1 93.4 105.1 86.6 103.2 86.6 103.2 89.1 98.4 89.1 98.4 86.6 96.4 86.6 96.4 93.4 98.4 93.4 98.4 90.7 103.2 90.7 103.2 93.4 105.1 93.4"/>
        <path class="cls-1" d="M116.2,90c0-.9-.2-1.4-.2-1.8-.2-.9-.7-1.4-1.8-1.6-.3-.2-1.1-.2-3-.2s-1.6,0-2.1.2c-1.1,0-1.8.5-1.9,1.3-.2.3-.2.7-.2,2.1v1.6c.2.7.3,1.3.9,1.4.7.3,1.3.3,3.5.3h2.5c1.1-.2,1.8-.5,2.1-1.4,0-.5.2-.9.2-2h0ZM114,89.8c0,1.3-.2,1.6-.5,1.8-.3.2-.7.2-2.3.2s-2.3-.2-2.3-1.8.2-1.4.5-1.6c.3-.2.7-.2,1.9-.2s1.9,0,2.3.2c.4.2.4.5.4,1.4h0Z"/>
        <polygon class="cls-1" points="124.5 93.4 124.5 91.6 119.7 91.6 119.7 86.6 117.8 86.6 117.8 93.4 124.5 93.4"/>
        <path class="cls-1" d="M134.7,90c0-1.6-.2-2.3-.7-2.9-.5-.3-1.1-.5-2.5-.5h-5.9v6.8h6c1.4,0,1.9-.2,2.3-.5.5-.5.7-1.2.7-2.8h0ZM132.6,90c0,1.3-.2,1.4-.7,1.6q-.2.2-.7.2h-3.5v-3.5h3.5c1.3,0,1.4.3,1.4,1.8h0Z"/>
        <path class="cls-1" d="M136.7,85.5h1.4v-1.1h-1.4v1.1h0ZM136.3,93.4h1.9v-6.8h-1.9v6.8h0Z"/>
        <polygon class="cls-1" points="149.5 93.4 149.5 86.6 147.5 86.6 147.5 91.8 143.4 86.6 140.1 86.6 140.1 93.4 142.2 93.4 142 88.2 146.1 93.4 149.5 93.4"/>
        <path class="cls-1" d="M160,90.5v-1.1h-4.8v1.3h2.7v.5c0,.3-.2.5-.7.5h-2.9c-.9,0-1.1-.3-1.1-1.6v-1.1c0-.7.3-1.1,1.1-1.1l.5.2.9-.2h.9c.5.2.5,0,.7.2.3,0,.5.2.5.7h2.1c0-1.3-.3-1.8-.9-1.9-.5-.3-.9-.5-3.5-.5s-1.6.2-2.1.2c-1.3,0-1.8.3-2.1,1.1-.2.5-.2,1.1-.2,2.3v1.4c.2.9.3,1.4.9,1.6.7.3,1.3.3,3.2.3h2.7c1.1,0,1.8-.3,1.9-1.3,0-.5,0-.7.2-1.6h0Z"/>
        <path class="cls-1" d="M39.8,83.2c-3,0-5.5,2-6.4,4.6-.9-2.7-3.5-4.6-6.4-4.6s-7,3-7,6.8,3.2,6.8,6.9,6.8,5.5-1.9,6.4-4.6c.9,2.7,3.4,4.6,6.4,4.6s6.8-3,6.8-6.8-3-6.8-6.8-6.8ZM29.2,93.3h-2.9c-1.4,0-2.1,0-2.7-.2-.7-.2-1.1-.7-1.1-1.6v-.3h1.9c0,.5.2.5.5.7h1.3c2.3,0,2.7,0,2.7-.7s-.2-.5-.7-.5h-2.8c-.9,0-1.6,0-1.9-.2-.7-.2-.9-.7-.9-1.8s.3-2,1.6-2.1h2.7c2,0,2.5,0,3,.2.5.2.9.7.9,1.8h-2.1c0-.5-.2-.5-1.4-.5h-1.9c-.5,0-.7.2-.7.5s.2.5.5.5h2.7c.2,0,.5,0,1.1.2,1.1,0,1.4.2,1.8.5.3.2.3.7.3,1.4,0,1.4-.3,2-1.8,2.1ZM42.6,93.4l-.7-1.3h-4.3l-.7,1.3h-2.3l3.7-6.8h2.8l3.7,6.8h-2.3Z"/>
        <polygon class="cls-1" points="41.2 90.7 38.3 90.7 39.7 88 41.2 90.7"/>
      </g>
    </g>
  </g>
</svg>