<?xml version="1.0" encoding="UTF-8"?>
<svg xmlns="http://www.w3.org/2000/svg" version="1.1" viewBox="0 0 180 180">
  <defs>
    <style>
      .cls-1 {
        fill: #9af49b;
      }
    </style>
  </defs>
  <!-- Generator: Adobe Illustrator 28.6.0, SVG Export Plug-In . SVG Version: 1.2.0 Build 709)  -->
  <g>
    <g id="Layer_1">
      <g>
        <polygon class="cls-1" points="72.5 91 66.3 91 67 80.2 63 91 57.2 91 66.3 66.6 72.5 66.6 71.8 77.5 75.9 66.6 81.7 66.6 72.5 91"/>
        <polygon class="cls-1" points="73.3 91 82.4 66.6 88.2 66.6 79 91 73.3 91"/>
        <path class="cls-1" d="M56.5,82.6c-8.1,9.5-15.7,22.1-8.9,27.9,6.5,5.6,14.6,2.3,20.2,0,5.5-2.2,66.9-28.8,66.9-28.8.6-.3.5-.7-.3-.5-.3,0-66.7,18.1-66.7,18.1-8.4,2.4-18-2.8-11.1-16.7Z"/>
        <path class="cls-1" d="M118.1,66.5c-.7,0-1.3.5-1.3,1.2s.6,1.2,1.3,1.2,1.3-.5,1.3-1.2-.6-1.2-1.3-1.2ZM118.1,68.6c-.5,0-.9-.4-.9-.9s.4-.9.9-.9.9.4.9.9-.4.9-.9.9Z"/>
        <path class="cls-1" d="M118.3,67.8c.2,0,.3-.1.3-.3s-.2-.4-.6-.4h-.5v1.3h.3v-.6h0l.3.6h.4l-.3-.6ZM118.1,67.6h-.2v-.3h.2c0,0,.2,0,.2.1s0,.2-.2.2Z"/>
        <path class="cls-1" d="M114.3,70.6l1.6-4.1h-17.6l-6,7.3,2.8-7.3h-5.8l-9.1,24.4h5.8l3.9-10.2.3,10.2h17.7s1.7-4.7,1.7-4.7h-6.7l2.2-5.9h5.5l1.7-4.5h-5.5l1.9-5.1h5.8ZM95.7,89.3l-.4-12.7,8.7-9.6-8.4,22.3Z"/>
      </g>
    </g>
  </g>
</svg>