<?xml version="1.0" encoding="UTF-8"?>
<svg xmlns="http://www.w3.org/2000/svg" version="1.1" viewBox="0 0 180 180">
  <defs>
    <style>
      .cls-1 {
        fill: #9af49b;
      }
    </style>
  </defs>
  <!-- Generator: Adobe Illustrator 28.6.0, SVG Export Plug-In . SVG Version: 1.2.0 Build 709)  -->
  <g>
    <g id="Layer_1">
      <g>
        <path class="cls-1" d="M27.5,96.9h4.7l1.2-2.5h8.6l1.3,2.5h4.7l-7.6-13.8h-5.5l-7.5,13.8M37.7,86.3l2.8,5.2h-5.4l2.7-5.2Z"/>
        <polyline class="cls-1" points="50.1 83.1 54.3 83.1 54.3 88.2 56.3 88.2 61.6 83.1 67.4 83.1 59.9 89.9 68.2 96.9 62.3 96.9 56.1 91.6 54.3 91.6 54.3 96.9 50.1 96.9 50.1 83.1"/>
        <path class="cls-1" d="M74.5,86.4h7.5c.8,0,1.2.2,1.2,1.1s-.4,1.1-1.2,1.1h-7.5v-2.2M70.3,96.9h13.5c2.4,0,4.2-.6,4.2-3.7s-.7-3-2.5-3.3c1.2-.3,2-.8,2-3.1s-1.6-3.7-5-3.7h-12.2v13.8ZM74.5,91.4h7.6c.9,0,1.5.2,1.5,1.2s-.6,1-1.5,1h-7.6v-2.2Z"/>
        <path class="cls-1" d="M89.7,96.9h4.7l1.2-2.5h8.6l1.3,2.5h4.7l-7.6-13.8h-5.5l-7.5,13.8M99.9,86.3l2.8,5.2h-5.4l2.7-5.2Z"/>
        <polyline class="cls-1" points="112.2 83.1 118.8 83.1 126.7 93.1 126.8 93.1 126.8 83.1 131 83.1 131 96.9 124.4 96.9 116.5 86.9 116.5 86.9 116.5 96.9 112.2 96.9 112.2 83.1"/>
        <polyline class="cls-1" points="134.3 83.1 138.6 83.1 138.6 88.2 140.5 88.2 145.9 83.1 151.6 83.1 144.2 89.9 152.5 96.9 146.5 96.9 140.4 91.6 138.6 91.6 138.6 96.9 134.3 96.9 134.3 83.1"/>
      </g>
    </g>
  </g>
</svg>