<?xml version="1.0" encoding="UTF-8"?>
<svg xmlns="http://www.w3.org/2000/svg" version="1.1" viewBox="0 0 180 180">
  <defs>
    <style>
      .cls-1 {
        fill: #9af49b;
        fill-rule: evenodd;
      }
    </style>
  </defs>
  <!-- Generator: Adobe Illustrator 28.6.0, SVG Export Plug-In . SVG Version: 1.2.0 Build 709)  -->
  <g>
    <g id="Layer_1">
      <g>
        <path class="cls-1" d="M83.2,80.4c.3,0,.5-.2.5-.5,0-.3-.2-.5-.5-.5-.3,0-.5.2-.5.5,0,0,0,0,0,0,0,.3.2.5.5.5h0ZM89.7,91.3c.8,0,1.3-.1,1.8-.3.4-.2.8-.3,1-.5.2-.2.4-.4.6-.5.2-.1.5-.1.8-.1.5,0,1,.1,1.4.4v-.7c-.2-.1-1.1-.5-2-.5s-1.3.2-1.6.6c-.4.4-.9.8-2.3.8s-1.2,0-1.6,0-.4,0-.4,0c0,.2.2.8.2.8.3,0,.9.2,1.9.2h0ZM85.5,89.1c.3,0,1.1.1,2,.2.5,0,1.1,0,1.6,0,1,0,2.2-.5,3.2-1l-.2-.7c-.5.3-1.4.5-2.1.7-.2,0-.7,0-.9,0-.3,0-.6-.1-.9-.2-.5,0-.9-.1-1.2-.1-.3,0-.9,0-1.2,0-1,0-1.7.3-2.4.8-.3.2-.8.6-1.1,1,.2,0,.7.1.7.1.7-.6,1.8-1,2.5-1h0Z"/>
        <path class="cls-1" d="M72.9,89.5c.5,0,.7.2,1,.3.2.1.4.3.5.4.3.3.2.5,0,.7-.1.1-.2.2-.6.4-.2.1-.4.3-.6.3-.3.1-.5.1-.6.1s-.3,0-.4-.1l-.8.5c.2.2.5.3,1,.3s1-.1,1.5-.3c.7-.3,1.4-.8,1.7-.9.5-.3,1-.5,1.6-.5s1,.3,1.7.6c.7.4,1.6.7,2.5.7s1,0,1.6-.2c1-.2,2.1-.6,3.2-.9l-.4-.6c-.3,0-1.2.4-2.1.6-.8.2-1.6.3-2,.3s-.8,0-1.1-.1c-.6-.2-1.2-.4-1.2-.9s.1-.6.6-.8c.7-.3,1.7-.3,2.3-.3.1-.1.5-.6.5-.6-.4,0-.9-.1-1.3-.1-.7,0-1.3,0-1.9.3-.5.2-.9.5-1.2.9-.1.2-.2.3-.4.3-.3,0-.8-.2-1.3-.2s-.4,0-.6,0c-.5,0-1.2-.4-1.8-.7-.4-.2-.8-.4-1.2-.4s-.4,0-.7.1c-.4.2-.9.5-1.1.7l.4.3c.2-.1.7-.3,1.3-.3h0ZM108.9,95.2c-1.9-1.6-3.8-3.4-5.1-4.8-2.3-2.5-5.3-7.3-6.4-10-.4-1-1.2-.7-.8.4,1,2.4,3.3,6,5.7,9-.6-.2-1.2-.6-1.6-.7-.1.2-.4.6-.8,1-.4.4-.8.7-.9.8-.3.2-.5.3-.6,0,0-.1-.3-.4-.3-.8l-.5-.6c-.3-.3-1.5-2.1-1.9-2.7-.4-.6-.9-1.2-1.7-1.2s-1.4,1.1-1.4,2.1l.7-.3c.2-.6.5-1,.8-1s.5.3.5.5c0,.3-.3.8-.4,1.3l.7.2c0-.3.1-.9.3-1.2,0,0,.2.2.3.3,0,0,.4.6.8,1.2.3.6.7,1.3,1.1,1.9.2.3.4.5.5.7.2.3.3.4.5.5.2,0,.3,0,.4,0,.4,0,.6-.1.9-.4.5-.5,1-1.1,1.5-1.7l1.1.5c.4.2.9.4,1.3.6,1,1.1,2.1,2.2,3.2,3.2l.8.7c.2.2.4.4.6.5l.9-.3h0Z"/>
        <path class="cls-1" d="M113.2,94.9c-2-4.3-4.5-9.6-6.8-12.8l-.5-.7c-.7-1-1.5-1.8-2.3-2.6l-.6-.6c-1.5-1.5-3.3-3-4.6-4-1.2-.9-2-3.1-4.6-3.1s-3.2,1.6-3.5,2.6c-.2.6-.3.8-.4,1.1l-1.5,1.8h1.8c0-.1-.9,1.4-.9,1.4.5-.1,3.7-.7,4.3.3.8,1.2.2,2.6,1.7,5.3l.6,1.1c.7,1.2,1.6,2.3,2.4,3.2l-.7,1.6.5.6,1.1-2.4c-.6-.5-2.3-2.9-3-4.2-1.6-3-1-4.5-2-5.8-.9-1.3-3.6-.7-3.6-.7l1-1.4-1.7.2.8-.9c.2-.2.2-.4.3-.6.3-1.2,1.2-2.4,2.8-2.4s2.6,1.5,4,2.8c1.4,1.2,4.4,3.6,7.1,6.7,2.2,2.5,5,8.3,7.1,12.8-2.3-1.1-6.3-5.1-8-8h-.8c1.8,3.3,5.6,7.2,9.4,9.4l.6-.6h0Z"/>
        <path class="cls-1" d="M107.8,80.7c.6-.4,1.4-.8,2.1-1.1.5.6,1.6,1.1,2.5,1.2v1c-1.1-.5-2.9-1-4.7-1l-.8.7c2.4,0,3.9.5,5.9,1.4l.4-2.5c-.8-.1-2-.3-2.4-.9,1.8-.5,3.7-.8,4.8-.7v-3.1c-.5.3-1.1.6-1.7.7-.7.2-1.4.3-1.5,0-.2-.3.8-1,1.8-1.5l-2.3-1.9c-.3.5-1.1,1.8-1.9,2.6-.6.6-1.2,1-1.5.8-.2-.1-.2-.5,0-1,.3-.9,1-2.2,1.5-2.8l-3.2-.3c0,1.3-.6,2.7-1.4,3.9-.6,1-1.6,1.7-2.3,2.1l.6.6c.9-.6,1.8-1.4,2.5-2.5.6-.9,1.1-2,1.3-3.3h1.1c-.5,1-1,2.3-1,3.1,0,.6.1.7.4.9.5.4,1.2.1,1.9-.4.7-.6,1.4-1.6,2.1-2.6l.9.8c-1.2.7-1.5,1.5-1.1,2,.1.2.4.3.8.4.4,0,.8,0,1.3-.2.3,0,.7-.2,1-.3v1.2c-2.7.2-7.2,1.3-8.9,3.6l.5.7c.1-.2.3-.5.5-.7l.8-.7h0ZM73,74.7l.4.3c.9-.8,2-2.1,2.6-3.5l-.3-.2c-.6.5-2,2.3-2.7,3.4Z"/>
        <path class="cls-1" d="M72.5,73.8c-.5-1.9.8-3,2.2-2.9.5-1,1.4-1.2,2.2-.7.8.5.7,1.7,0,2.3.2,1.1-.7,2.7-2.3,2.6.2,1.5-1.7,2.4-2.8,1.4-1-.8-.8-2.2.6-2.8ZM71.8,73.5c-.5.1-.7.4-1,.9.1-1.2-.7-2.4-2-2.3.1-2.1-2-3.4-3.9-2.4-1.1-1-2.4-.8-3.1.1-.7.8-.7,2.3.8,3-.4,1.5,1,3,2.6,2.6,0,.5.4.7.9.9-.7,0-.9.7-.9.7-2.1-.5-3.2.9-3.2,2.3-1.5.5-2,2.4-.8,3.5,1.2,1.2,2.7.7,3.3-.5,1.4.5,2.8-.3,2.9-1.8,1.5.1,2.1-1.1,2-2.3h-.5c-.2,1.1-.8,1.6-2,1.6,0,1.1-1.3,2.1-2.6,1.8-.4.9-1.5,1.2-2.3.4-.8-.8-.5-2.2.8-2.4,0-1.4,1.3-2.2,3.2-2.2.5-.7,1-1,1.8-.9v-.4c-.8-.1-1.6-.8-1.7-1.6-1.6.1-2.8-.8-2.7-2.3-1.1-.5-.9-1.6-.5-2,.6-.7,1.4-.7,2.1,0,1.9-.7,3.4.8,3.4,2.4,0,0,.9,0,1.4.5.7.7.7,1.3.8,1.9.1.6.5,1.4,1.2,2,1.4,1.1,3.4.8,3.7-1.5,1.8.2,3-1.3,2.4-3,1.3-.9,1-2.8-.2-3.5-1-.7-2.4-.4-3.1.6,0,0-.1.2-.2.3-1.8-.4-3.3,1.4-2.5,3.2h0ZM80.1,84.3c.2-.6-.7-.7-.8-.1-.1.6-.9,1.7-1.6,2.4l.3.3c1-.7,2-1.7,2.2-2.5h0ZM84.4,73.6c.3,0,.5-.3.5-.6,0-.3-.2-.5-.5-.5-.3,0-.5.2-.5.5s.2.5.5.5ZM92.4,74.1c0-.4.3-.6.7-.6.3,0,.6.3.6.6,0,.4-.3.6-.6.6,0,0,0,0,0,0-.4,0-.6-.3-.6-.6h0ZM91.4,85.7c-4.2-.3-8.4,0-8.4,0l.3-.8c4-.3,8.1,0,8.1,0v.8h0Z"/>
        <path class="cls-1" d="M66.1,88.6s.2.3.6.7c.1.2.3.3.4.5.8.7,1.9,1.3,3.1,1.5.3,0,.6.1,1,.1.5,0,1-.3,1.2-.5l-.5-.5c-.1,0-.5,0-.7,0-1.7,0-3.8-1.1-4.3-2.4,0-.1-.1-.2,0-.3,0-.1.1-.4.1-.6,0,.1.3.3.6.5.6.4,1.8,1,2.1,1.1.5-.1,1-.3,1.4-.6.4-.2.8-.3,1.4-.3,1.2,0,2.7.7,4,1.4l.9-.4c-1.2-.8-3.8-2-5.2-2s-1.6.6-2.2.6-2.7-1-2.7-1.8,1.3-1,3.4-1.2c-.4.5-.7,1.1-1,1.6l.5.3c3.2-4.7,6.6-7.8,9.4-9.6,1-.7,1.3-1.1,1.6-1.8.9-1.8,1.7-3.2,3.1-3.2s1.2.4,1.6.8l1,.3-1.1.7,1.1.4c-1.4.4-3.3,1.8-4.1,3.8-1.5,0-2.2,1.3-2.7,2.3-.3.7-.9,1-1.6,1.5l-6.1,4.3h.8c0,.1,5.7-3.7,5.7-3.7,1.1-.8,1.6-1.3,1.9-1.8.5-1.1,1.1-1.8,2.2-1.8s1.1.2,1.6.7l1,.3-1.1.7.9.6c-2.6.8-4.2,2.7-5.1,6.3l.7.2c.3-1.2.7-2.3,1.3-3.2,1.5,0,3,0,4.5,0,4,0,7.3.2,9.1.7l-.6-1.1c-1.9-.3-4.7-.5-8.5-.5s-2.5,0-3.8,0c.8-.9,2-1.6,3.8-2.2l-1.3-.7,1.4-.8-2-.7c-.3-.3-.8-.6-1.3-.7.6-1.9,2.8-3.1,4.8-3.8l-1.4-.6,1.4-.8-2.2-.7c-.6-.7-1.1-1-2-1-2.1,0-2.9,1.8-3.8,3.4-.4.8-.7,1.2-1.4,1.7-1.6,1-3.6,2.6-5.5,4.7-1-.7-3.1-2.9-3.6-4-.2.3-.4.9-.4.9.2.2,2.6,2.7,3.5,3.7,0,0-.1.2-.2.2-1,.2-3.5.4-4.3.3l-.5.8c.6,0,3.1-.4,4.2-.4-.3.4-.6.8-.9,1.2-3.2.4-5.3,1-5.3,2.2s0,.4,0,.6c0,.5-.2.7-.5.9-.2.1-.2.2-.1.4.5.9-1.1,1.3,0,2.8h1c0,0-.9-.5-.3-1.7h0ZM64.8,71.6l-.3.3c.5.7,2.5,2.5,3.5,3.1l.4-.5c-.7-.8-2.6-2.5-3.5-3h0ZM63.4,80.7l.3.3c.8-.4,2.2-1.4,3-2.2l-.2-.3c-.9.4-2.3,1.4-3.1,2.2h0Z"/>
        <path class="cls-1" d="M107.9,94c0-.6-.5-1-1-1h-1.5c-.6,0-1,.5-1,1h0s0,15.7,0,15.7c0,.6.5,1,1,1h1.5c.6,0,1-.5,1-1h0v-15.7h0ZM109.8,94.4v.7c0,.3.3.6.6.6h10.4c.5,0,.9-.4.9-.9v-1.3c0-.5-.4-.9-.9-.9,0,0-10,1-10.3,1-.4,0-.6.3-.6.6h0ZM101.4,110.7c-2.6,0-4.2-2-4.2-4.1v-6.3h-.7c-.4,0-.7-.3-.7-.7h0v-1.1c0-.4.3-.7.7-.7h.7s0-3.9,0-3.9c0-.5.4-1,1-1,0,0,0,0,0,0h1.5c.5,0,1,.4,1,1v3.9h2.3c.4,0,.7.3.7.7v1.1c0,.4-.3.7-.7.7,0,0,0,0,0,0h-2.3v5.8c0,1.1.7,1.9,1.9,1.9h.2c.4,0,.8.3.8.8v1.1c0,.4-.3.8-.8.8,0,0,0,0,0,0h-1.4s0,0,0,0ZM77.3,97.4c-4.2,0-6.5,3.3-6.5,6.7s2.5,6.9,6.5,6.9,5.5-1.5,6-3.8c0-.3-.1-.7-.6-.7h-2c-.4,0-.7.2-.8.4-.6.8-1.4,1.3-2.6,1.3s-2.9-1.4-3-2.9h8.4c.8,0,1.1-.4,1.1-1.1,0-3.4-2-6.7-6.5-6.7h0ZM77.3,100.1c1.5,0,2.9,1.1,3,2.6h-6c.1-1.5,1.4-2.6,3-2.6ZM115.5,97.4c-4.2,0-6.5,3.3-6.5,6.7s2.5,6.9,6.5,6.9,5.5-1.5,6-3.8c0-.3-.1-.7-.6-.7h-2c-.4,0-.7.2-.8.4-.6.8-1.4,1.3-2.6,1.3s-2.9-1.4-3-2.9h8.4c.8,0,1.1-.4,1.1-1.1,0-3.4-2-6.7-6.5-6.7h0ZM115.5,100.1c1.5,0,2.9,1.1,3,2.6h-6c.1-1.5,1.4-2.6,3-2.6Z"/>
        <path class="cls-1" d="M94.4,93.1h-27.1c-.6,0-1.1.5-1.1,1.1s0,0,0,0v10.7c0,0-5.8-10.6-6.1-11.1-.3-.5-.9-1-1.8-1h-2.2c-.6,0-1.1.5-1.1,1.1,0,0,0,0,0,0v15.6c0,.6.5,1.1,1.1,1.1h1.4c.6,0,1.1-.5,1.1-1.1v-11c0,0,5.8,10.7,6.1,11.1.3.6.9,1,1.8,1h2.1c.6,0,1.1-.5,1.1-1.1h0s0-13.8,0-13.8h24.8c.4,0,.8-.3.8-.8,0,0,0,0,0,0v-1.1c0-.4-.3-.8-.8-.8h0Z"/>
        <path class="cls-1" d="M90,99.9c1.2,0,2.1.4,2.4,1.2.2.4.4.4.9.4h1.6c.3,0,.6-.2.6-.6,0-1.9-2.2-3.6-5.4-3.6s-5.5,1.6-5.5,4.1,1.5,3.1,3.4,3.5c.8.2,2.3.6,3,.8.8.2,1.4.4,1.4,1.1,0,1-1.1,1.4-2.3,1.4s-2.2-.5-2.6-1.3c-.2-.5-.5-.5-1-.5h-1.7c-.3,0-.6.2-.6.6v.2c0,1.8,2.4,3.7,5.8,3.7s5.7-1,5.7-4.2-1.2-3.1-3.3-3.7c-.8-.2-2.7-.7-3.1-.8-.7-.2-1.4-.4-1.4-1.1,0-1,.9-1.3,2-1.3h0Z"/>
        <path class="cls-1" d="M107.9,94c0-.6-.5-1-1-1h-1.5c-.6,0-1,.5-1,1h0s0,15.7,0,15.7c0,.6.5,1,1,1h1.5c.6,0,1-.5,1-1h0v-15.7h0ZM109.8,94.4v.7c0,.3.3.6.6.6h10.4c.5,0,.9-.4.9-.9v-1.3c0-.5-.4-.9-.9-.9,0,0-10,1-10.3,1-.4,0-.6.3-.6.6h0ZM101.4,110.7c-2.6,0-4.2-2-4.2-4.1v-6.3h-.7c-.4,0-.7-.3-.7-.7h0v-1.1c0-.4.3-.7.7-.7h.7s0-3.9,0-3.9c0-.5.4-1,1-1,0,0,0,0,0,0h1.5c.5,0,1,.4,1,1v3.9h2.3c.4,0,.7.3.7.7v1.1c0,.4-.3.7-.7.7,0,0,0,0,0,0h-2.3v5.8c0,1.1.7,1.9,1.9,1.9h.2c.4,0,.8.3.8.8v1.1c0,.4-.3.8-.8.8,0,0,0,0,0,0h-1.4s0,0,0,0ZM83.8,104.1c0-3.4-2-6.7-6.5-6.7s-6.5,3.3-6.5,6.7,2.5,6.9,6.5,6.9,5.5-1.5,6-3.8c0-.3-.1-.7-.6-.7h-2c-.4,0-.7.2-.8.4-.6.8-1.4,1.3-2.6,1.3s-2.9-1.4-3-2.9h8.4c.8,0,1.1-.4,1.1-1.1h0ZM74.3,102.6c.1-1.5,1.4-2.6,3-2.6s2.9,1.1,3,2.6h-6ZM122,104.1c0-3.4-2-6.7-6.5-6.7s-6.5,3.3-6.5,6.7,2.5,6.9,6.5,6.9,5.5-1.5,6-3.8c0-.3-.1-.7-.6-.7h-2c-.4,0-.7.2-.8.4-.6.8-1.4,1.3-2.6,1.3s-2.9-1.4-3-2.9h8.4c.8,0,1.1-.4,1.1-1.1h0ZM112.5,102.6c.1-1.5,1.4-2.6,3-2.6s2.9,1.1,3,2.6h-6Z"/>
        <path class="cls-1" d="M94.4,93.1h-27.1c-.6,0-1.1.5-1.1,1.1s0,0,0,0v10.7c0,0-5.8-10.6-6.1-11.1-.3-.5-.9-1-1.8-1h-2.2c-.6,0-1.1.5-1.1,1.1,0,0,0,0,0,0v15.6c0,.6.5,1.1,1.1,1.1h1.4c.6,0,1.1-.5,1.1-1.1v-11c0,0,5.8,10.7,6.1,11.1.3.6.9,1,1.8,1h2.1c.6,0,1.1-.5,1.1-1.1h0s0-13.8,0-13.8h24.8c.4,0,.8-.3.8-.8,0,0,0,0,0,0v-1.1c0-.4-.3-.8-.8-.8h0Z"/>
        <path class="cls-1" d="M90,99.9c1.2,0,2.1.4,2.4,1.2.2.4.4.4.9.4h1.6c.3,0,.6-.2.6-.6,0-1.9-2.2-3.6-5.4-3.6s-5.5,1.6-5.5,4.1,1.5,3.1,3.4,3.5c.8.2,2.3.6,3,.8.8.2,1.4.4,1.4,1.1,0,1-1.1,1.4-2.3,1.4s-2.2-.5-2.6-1.3c-.2-.5-.5-.5-1-.5h-1.7c-.3,0-.6.2-.6.6v.2c0,1.8,2.4,3.7,5.8,3.7s5.7-1,5.7-4.2-1.2-3.1-3.3-3.7c-.8-.2-2.7-.7-3.1-.8-.7-.2-1.4-.4-1.4-1.1,0-1,.9-1.3,2-1.3h0ZM123.1,110.1h-.4v-1.7h.6c.4,0,.7.1.7.5s-.2.4-.4.4l.4.8h-.4l-.4-.7h-.2v.7h0ZM123.5,109c.2,0,.3,0,.3-.2s-.2-.2-.3-.2h-.3v.4h.3ZM123.4,110.8c-.8,0-1.6-.6-1.6-1.6s.8-1.6,1.6-1.6,1.6.6,1.6,1.6-.8,1.6-1.6,1.6ZM123.4,108c-.6,0-1.1.5-1.1,1.2s.5,1.2,1.1,1.2h0c.6,0,1.1-.5,1.1-1.2s-.5-1.2-1.1-1.2h0Z"/>
      </g>
    </g>
  </g>
</svg>