<?xml version="1.0" encoding="UTF-8"?>
<svg xmlns="http://www.w3.org/2000/svg" version="1.1" viewBox="0 0 180 180">
  <defs>
    <style>
      .cls-1 {
        fill-rule: evenodd;
      }

      .cls-1, .cls-2 {
        fill: #9af49b;
      }
    </style>
  </defs>
  <!-- Generator: Adobe Illustrator 28.6.0, SVG Export Plug-In . SVG Version: 1.2.0 Build 709)  -->
  <g>
    <g id="Layer_1">
      <g>
        <path class="cls-1" d="M65.1,64.2h42.9c3.9,0,7,3.2,7,7v13h-14.3v-14h-3.9v14h-13.8v-14h-3.9v14h-14v-20h0Z"/>
        <path class="cls-1" d="M65.1,87.8v28c0,0,13.8,0,13.8,0v-17.8c0,0,30.2,0,30.2,0,3.1.2,5.8-1.1,5.8-4.3v-5.9l-14-.2v3.5c0,1.8-.7,2.3-2,2.3l-19.9-.2v-5.6h-13.9Z"/>
        <path class="cls-2" d="M81.8,103.3v-.4c0-.6,0-1,0-1-.1,0-.3,0-.5-.2,0,0,0-.1,0-.3,0-.2.3-.4.9-.6.3,0,.5-.2.8-.2.3,0,.5,0,.6,0s.2,0,.2,0c0,0,0,0,0,.2s0,.2,0,.2,0,0,.2-.1c.2,0,.3-.2.5-.2.2,0,.4,0,.5,0,.7,0,1.2.3,1.5,1,.1.3.2.6.2.9s0,.7-.2,1c-.2.3-.4.6-.7.8-.3.2-.7.3-1,.3s-.3,0-.5,0c0,0,0,0-.2,0h-.2c0,0-.1,0-.1.2s0,.4.3.5c.1,0,.2.1.2.1,0,0,0,0,0,.2,0,.3-.4.5-1.1.5s-1.3-.1-1.7-.4c-.2-.1-.3-.2-.3-.4s0-.2,0-.2h.2c.1-.2.2-.3.2-.3,0-.1.1-.6.1-1.2h0ZM84.7,102.6c0-.7-.2-1-.6-1s-.2,0-.2,0c0,0,0,.2-.1.4,0,.2,0,.6,0,1s.1.3.4.3.6-.3.6-.9h0ZM91.2,101.8v.8c0,.5,0,.8.2.9h.2s0,0,0,.2c0,.3-.2.6-.7.8-.2,0-.4.1-.6.1-.3,0-.5,0-.7-.3,0,0-.1-.1-.2-.1s-.1,0-.2.1c-.2,0-.3.2-.4.2-.1,0-.3,0-.5,0-.5,0-.9-.2-1.2-.5-.1-.2-.2-.4-.2-.6,0-.5.3-.8.9-1,.3-.1.7-.2,1.1-.2s.3,0,.3,0c0,0,0-.1,0-.2,0-.5-.1-.8-.4-.8s-.2,0-.3,0c0,0-.2.2-.3.3-.2.3-.5.4-.7.4s-.2,0-.3-.1c0,0-.1-.2-.1-.3,0-.2.1-.4.4-.5.2-.2.5-.3.9-.4.4,0,.7-.1.9-.1.6,0,1.1.2,1.4.5.2.2.3.5.3.8h0ZM89.2,102.7c-.1,0-.2,0-.3.1,0,0-.1.2-.1.3s0,.2,0,.3c0,0,.2.1.3.1.2,0,.3-.2.3-.5s0-.4-.2-.4h0ZM94.3,103.1c0,.2,0,.4,0,.4,0,0,0,.1.1.2,0,0,0,.2,0,.2,0,.3-.5.5-1.4.5s-1.2-.2-1.2-.5,0-.1.1-.2c.1-.1.2-.2.2-.2,0,0,0-.2,0-.4v-1.1c0-.2,0-.4-.2-.5-.2,0-.2-.2-.2-.3s.1-.2.4-.4c.3-.1.6-.2,1-.3.4,0,.6-.1.7-.1s.2,0,.2,0c0,0,0,.1,0,.2h0c0,.3,0,.3.2.3s.1,0,.2-.2h.1c.2-.4.5-.5.9-.5.7,0,1.2.3,1.3.9,0,.3.1.5.1.8v1c0,.2,0,.3.1.3,0,0,.1.1.2.2,0,0,.1.2.1.3,0,.1,0,.3-.3.3-.2,0-.7.1-1.2.1s-1.1-.1-1.1-.4,0-.1.1-.2v-.2c.2,0,.2-.1.2-.3v-.3s0-.3,0-.3v-.3c0-.6-.2-.9-.6-.9s-.3,0-.4.2c0,.1,0,.3,0,.5v.8h0ZM97.8,102.4c0-.4.1-.7.3-1,.2-.3.5-.5.9-.7.4-.2.8-.3,1.2-.3s.8,0,1.1.2c.3.1.5.3.6.5,0,.1.1.3.1.4,0,.2,0,.4-.2.5-.2.1-.3.2-.6.2s-.3,0-.4-.1c0,0-.2-.2-.2-.4,0-.2-.1-.3-.2-.4,0,0-.2-.1-.3-.1s-.3,0-.4.2c-.1.1-.2.3-.2.5,0,.4.2.7.5,1,.2.1.4.2.6.2s.3,0,.6-.1c.2,0,.3-.1.3-.1.1,0,.2,0,.3.1,0,0,.1.2.1.3,0,.2,0,.3-.2.5-.2.2-.4.3-.7.4-.3.1-.6.2-1,.2s-.8,0-1.1-.3c-.3-.2-.6-.4-.8-.7-.2-.3-.3-.7-.3-1h0ZM106.6,101.8v.8c0,.5,0,.8.2.9h.2s0,0,0,.2c0,.3-.2.6-.7.8-.2,0-.4.1-.6.1-.3,0-.5,0-.7-.3,0,0-.1-.1-.2-.1s-.1,0-.2.1c-.2,0-.3.2-.4.2-.1,0-.3,0-.5,0-.5,0-.9-.2-1.2-.5-.1-.2-.2-.4-.2-.6,0-.5.3-.8.9-1,.3-.1.7-.2,1.1-.2s.3,0,.3,0c0,0,0-.1,0-.2,0-.5-.1-.8-.4-.8s-.2,0-.3,0c0,0-.2.2-.3.3-.2.3-.5.4-.7.4s-.2,0-.3-.1c0,0-.1-.2-.1-.3,0-.2.1-.4.4-.5.2-.2.5-.3.9-.4.4,0,.7-.1.9-.1.6,0,1.1.2,1.4.5.2.2.3.5.3.8h0ZM104.6,102.7c-.1,0-.2,0-.3.1,0,0-.1.2-.1.3s0,.2,0,.3c0,0,.2.1.3.1.2,0,.3-.2.3-.5s0-.4-.2-.4h0ZM107.8,102.5v-.5c0-.3,0-.4-.3-.5-.1,0-.2,0-.2,0,0,0,0,0,0-.2,0-.3.5-.5,1.4-.7.3,0,.5,0,.6,0,.1,0,.2,0,.3,0,0,0,0,.1,0,.3,0,0,0,.1,0,.2,0,0,0,0,.1,0s.1,0,.2-.2c.1-.1.3-.2.3-.3.1,0,.3-.1.5-.1s.5,0,.7.2c.2.2.3.4.3.6s-.2.6-.5.8c-.2,0-.3.1-.5.1s-.3,0-.4,0c0,0-.1,0-.3-.2-.1,0-.2-.1-.2-.1-.1,0-.2.2-.2.5v.2c0,.3,0,.5,0,.8,0,0,.1.2.3.2.2,0,.3.2.3.3,0,.3-.3.4-.8.5-.2,0-.5,0-.9,0-1,0-1.5-.2-1.5-.5s0-.2.2-.3h.2c0-.2,0-.2,0-.3,0-.2,0-.5,0-.8h0ZM81.7,112v-.7c0-.3,0-.4,0-.5,0,0-.1-.1-.2-.2,0,0-.1-.1-.1-.2,0-.3.5-.5,1.5-.7.4,0,.6,0,.6,0,.2,0,.2.1.2.3s0,.4.1.4,0,0,.2-.1c.2-.1.3-.2.3-.3.3-.2.6-.3,1-.3s.7,0,.8.3c0,0,0,0,.2.2,0,0,.1.1.1.1s0,0,.2-.1l.3-.2c0,0,.2-.1.4-.2.2,0,.3,0,.5,0,.4,0,.7,0,.9.3.2.2.3.5.3.9v1.6c0,.1,0,.2,0,.3,0,0,0,.1.2.2,0,0,0,.1,0,.2,0,.3-.4.5-1.3.5s-.6,0-.8,0c-.3,0-.4-.2-.4-.4s0-.1,0-.1h.1c0-.2,0-.2.1-.3,0,0,0-.1,0-.2v-.8c0-.5-.1-.8-.4-.8s-.3,0-.3.2c0,.1,0,.3,0,.6v.5c0,.3,0,.5,0,.6,0,0,0,.2.2.3,0,0,0,.2,0,.2,0,.3-.4.5-1.3.5s-1.1,0-1.2-.2c0,0,0-.1,0-.2s0-.2.1-.3c.1-.1.2-.2.2-.2,0,0,0-.3,0-.5v-.4c0-.3,0-.6,0-.7,0-.2-.2-.3-.4-.3s-.3,0-.3.2c0,.1,0,.3,0,.6v.6c0,.3,0,.5.2.7,0,0,0,.2,0,.2,0,.3-.4.5-1.3.5s-1.3-.1-1.3-.4,0-.1.2-.3c.1-.1.2-.2.2-.3,0-.1,0-.3,0-.6h0ZM92.7,113.5c-.6,0-1.2-.2-1.6-.5-.4-.3-.7-.8-.7-1.4s.2-.9.5-1.3c.3-.3.7-.6,1.2-.7.3,0,.6-.1,1-.1s.8,0,1.2.3c.3.2.6.4.8.8.2.3.3.6.3,1s-.1.7-.4,1.1c-.3.3-.6.5-1,.7-.4.2-.8.3-1.2.3h0ZM93.5,112.1c0-.5-.1-1-.3-1.4-.1-.2-.2-.3-.4-.3s-.2,0-.3.1c0,0-.1.2-.1.3s0,.2,0,.3c0,0,0,.2,0,.4.1.7.3,1,.7,1s.4-.2.4-.5h0ZM99,111.8v-1.1c0,0,0-.2,0-.2,0,0,0,0,.1,0,0,0,0,0,.1,0h.6c.2,0,.3,0,.4-.1,0,0,0-.2,0-.3h0c0-.2,0-.3,0-.3,0,0-.1,0-.3,0h-.6c-.2,0-.2,0-.3,0,0,0,0,0,0-.2v-.4c0-.2,0-.2,0-.3,0,0-.1,0-.3,0s-.3,0-.4,0l-1.9,1.1c0,0,0,.1,0,.2,0,.2,0,.3.1.3,0,0,.2,0,.3,0h.2c0,0,.1,0,.1,0,0,0,0,0,0,.1v1.6c0,.5.2.9.5,1.1.3.2.7.3,1,.3.6,0,1.1-.2,1.5-.5.2-.1.3-.3.3-.5s0-.2,0-.2c0,0-.1-.1-.2-.1s0,0-.2,0c-.1,0-.2,0-.3,0-.3,0-.5-.2-.5-.6h0ZM103.6,113.5c-.6,0-1.2-.2-1.6-.5-.4-.3-.7-.8-.7-1.4s.2-.9.5-1.3c.3-.3.7-.6,1.2-.7.3,0,.6-.1,1-.1s.8,0,1.2.3c.3.2.6.4.8.8.2.3.3.6.3,1s-.1.7-.4,1.1c-.3.3-.6.5-1,.7-.4.2-.8.3-1.2.3h0ZM104.3,112.1c0-.5-.1-1-.3-1.4-.1-.2-.2-.3-.4-.3s-.2,0-.3.1c0,0-.1.2-.1.3s0,.2,0,.3c0,0,0,.2,0,.4.1.7.3,1,.7,1s.4-.2.4-.5h0ZM107.8,111.6v-.5c0-.3,0-.4-.3-.5-.1,0-.2,0-.2,0,0,0,0,0,0-.2,0-.3.5-.5,1.4-.7.3,0,.5,0,.6,0,.1,0,.2,0,.3,0,0,0,0,.1,0,.3,0,0,0,.1,0,.2,0,0,0,0,.1,0s.1,0,.2-.2c.1-.1.3-.2.3-.3.1,0,.3-.1.5-.1s.5,0,.7.2c.2.2.3.4.3.6s-.2.6-.5.8c-.2,0-.3.1-.5.1s-.3,0-.4,0c0,0-.1,0-.3-.2-.1,0-.2-.1-.2-.1-.1,0-.2.2-.2.5v.2c0,.3,0,.5,0,.8,0,0,.1.2.3.2.2,0,.3.2.3.3,0,.3-.3.4-.8.5-.2,0-.5,0-.9,0-1,0-1.5-.2-1.5-.5s0-.2.2-.3h.2c0-.2,0-.2,0-.3,0-.2,0-.5,0-.8h0Z"/>
      </g>
    </g>
  </g>
</svg>