<?xml version="1.0" encoding="UTF-8"?>
<svg xmlns="http://www.w3.org/2000/svg" xmlns:xlink="http://www.w3.org/1999/xlink" version="1.1" viewBox="0 0 180 180">
  <defs>
    <style>
      .cls-1 {
        fill: none;
      }

      .cls-2 {
        clip-path: url(#clippath-1);
      }

      .cls-3 {
        clip-path: url(#clippath-3);
      }

      .cls-4 {
        clip-path: url(#clippath-2);
      }

      .cls-5 {
        fill: #9af49b;
      }

      .cls-6 {
        clip-path: url(#clippath);
      }
    </style>
    <clipPath id="clippath">
      <rect class="cls-1" x="20" y="84.2" width="140" height="11.6"/>
    </clipPath>
    <clipPath id="clippath-1">
      <rect class="cls-1" x="20" y="84.2" width="140" height="11.6"/>
    </clipPath>
    <clipPath id="clippath-2">
      <rect class="cls-5" x="76" y="88.6" width="11.7" height="1.9"/>
    </clipPath>
    <clipPath id="clippath-3">
      <path class="cls-5" d="M78.2,90.2c-.6-.5-2.2-1.6-2.2-1.6h11.7s-7.8,2.8-9.6,1.6h0Z"/>
    </clipPath>
  </defs>
  <!-- Generator: Adobe Illustrator 28.6.0, SVG Export Plug-In . SVG Version: 1.2.0 Build 709)  -->
  <g>
    <g id="Layer_1">
      <g>
        <g class="cls-6">
          <g>
            <path class="cls-5" d="M26.5,86l-2,4.8h0l-.8-2-1.2-2.8h-2.5l3.3,7v2.6h2.3v-2.7l3.3-7h-2.4Z"/>
            <rect class="cls-5" x="31.8" y="86" width="2.3" height="9.7"/>
            <path class="cls-5" d="M37.7,86v9.7h6.9v-1.8h-4.6v-7.9h-2.3Z"/>
          </g>
        </g>
        <g class="cls-2">
          <g>
            <path class="cls-5" d="M51.2,86c3,0,4.5,1.4,4.5,4.8s-1.5,4.8-4.5,4.8h-3.4v-9.7h3.4ZM51.4,93.8c1.7,0,2.1-.8,2.1-3s-.4-3.1-2.1-3.1h-1.2v6.1h1.3Z"/>
            <rect class="cls-5" x="59.1" y="86" width="2.3" height="9.7"/>
            <path class="cls-5" d="M64.6,94.1l4.4-6.4h-1.5c0,0-2.8,0-2.8,0v-1.8h7v1.5l-4.5,6.4h1.5c0,0,3.1,0,3.1,0v1.8h-7.3v-1.6Z"/>
            <path class="cls-5" d="M82.6,93.3c0,0,0,.1,0,.2,0,0,0,0,0,0l3,2.2c0,0,.1,0,0,0l-1.3-3.9c0,0,0,0-.1,0,0,0,0,0,0,0l-1.6,1.7Z"/>
            <path class="cls-5" d="M83.1,88.2c0,0,.1,0,.1,0,0,0,0,0,0,0l-1.3-3.9c0,0,0,0-.1,0l-1.2,3.6c0,0,0,.1,0,.2,0,0,0,0,0,0l2.3.2Z"/>
            <path class="cls-5" d="M87.9,88.7c0,0,0,0,0,0h-12c0,0-.1,0,0,0l3.5,2.6c0,0,.1.2,0,.3l-1.4,4.2c0,0,0,.1,0,0l3.5-2.6.3-.2,2.1-1.5.3-.2,3.5-2.6Z"/>
            <g>
              <rect class="cls-5" x="76" y="88.6" width="11.7" height="1.9"/>
              <g class="cls-4">
                <g>
                  <path class="cls-5" d="M78.2,90.2c-.6-.5-2.2-1.6-2.2-1.6h11.7s-7.8,2.8-9.6,1.6h0Z"/>
                  <g class="cls-3">
                    <rect class="cls-5" x="76" y="88.6" width="11.7" height="2.8"/>
                  </g>
                </g>
              </g>
            </g>
            <path class="cls-5" d="M92.1,95.6v-9.6h2.3v3.6h3.3v-3.6h2.3v9.6h-2.3v-4.2h-3.3v4.2h-2.3Z"/>
            <path class="cls-5" d="M110.4,94.7c-1.8,1.5-4.3,1.5-6.1,0-.9-.9-1.3-2.3-1.3-3.9s.4-3,1.3-3.9c1.8-1.5,4.3-1.5,6.1,0,.9.9,1.3,2.3,1.3,3.9s-.4,3-1.3,3.9M105.8,93.4c.8.8,2,.9,2.9.2,0,0,.1,0,.2-.2.4-.5.6-1.3.6-2.6s-.2-2.1-.6-2.6c-.8-.8-2-.9-2.9-.2,0,0-.1,0-.2.2-.4.5-.6,1.3-.6,2.6s.2,2.1.6,2.6"/>
            <path class="cls-5" d="M117.1,86v7.9h4.6v1.8h-6.9v-9.6h2.3Z"/>
            <path class="cls-5" d="M127.9,86c3,0,4.5,1.4,4.5,4.8s-1.5,4.8-4.5,4.8h-3.4v-9.6h3.4ZM128.1,93.8c1.7,0,2.1-.8,2.1-3s-.4-3.1-2.1-3.1h-1.2v6.1h1.3Z"/>
            <rect class="cls-5" x="135.4" y="86" width="2.3" height="9.6"/>
            <path class="cls-5" d="M146.6,95.6l-2.5-4.1-1-2h0s0,3.1,0,3.1v3h-2.1v-9.6h2.3l2.4,4.2,1.3,2.4h0s0-3,0-3v-3.6h2.1v9.6h-2.5Z"/>
            <path class="cls-5" d="M159,88.1c-.8-.4-1.6-.6-2.5-.6-1.7,0-2.4.9-2.4,3.3s.6,3.2,2.2,3.2c.5,0,1,0,1.5-.3v-2.3l-1.9-.2v-1.5h4.1v5.7l-1.1.3-.8-.5-1.7.6h-.4c-2.5,0-4.1-1.4-4.1-5s1.6-5,4.7-5c1.1,0,2.2.3,3.2.8l-.7,1.5Z"/>
          </g>
        </g>
      </g>
    </g>
  </g>
</svg>