<?xml version="1.0" encoding="UTF-8"?>
<svg xmlns="http://www.w3.org/2000/svg" version="1.1" viewBox="0 0 180 180">
  <defs>
    <style>
      .cls-1 {
        fill-rule: evenodd;
      }

      .cls-1, .cls-2 {
        fill: #9af49b;
      }
    </style>
  </defs>
  <!-- Generator: Adobe Illustrator 28.6.0, SVG Export Plug-In . SVG Version: 1.2.0 Build 709)  -->
  <g>
    <g id="Layer_1">
      <g>
        <path class="cls-1" d="M56.8,90.9c0-.8.3-1.6,1-1.6s1,.7,1,1.6h-2ZM63,93.4c.2-4.5-2.3-7.3-5.4-7.3s-5.1,2.5-5.1,6.5,2.5,6.1,5.3,6.1,4.4-1.3,5-4.2h-4.2c0,.6-.4,1-.9,1-.9,0-1-1.1-1-2.1h6.2Z"/>
        <path class="cls-2" d="M68.6,86.4h-4.2v12.1h4.3v-5.9c0-.7,0-1.7.7-1.7s.7,1,.7,1.7v5.9h4.3v-7.4c0-2.7-.9-4.9-3.1-4.9s-2,.9-2.8,2.2h0l.2-1.9Z"/>
        <polygon class="cls-1" points="90.7 87 90.7 86.4 81.6 86.4 81.6 90.2 83.7 90.2 84.7 90 84.7 90.1 81.2 97.6 81.2 98.4 90.5 98.4 90.5 94.6 88.1 94.6 87.2 94.7 87.2 94.6 88.1 92.4 90.7 87"/>
        <path class="cls-2" d="M121.3,86.4h-4.5v12.1h4.6v-5.9c0-.7,0-1.7.7-1.7s.7,1,.7,1.7v5.9h4.3v-7.4c0-2.7-.9-4.9-3.1-4.9s-2,.9-2.8,2.2h0l.2-1.9Z"/>
        <polygon class="cls-2" points="128.4 98.4 132.8 98.4 132.8 92.4 134.8 98.4 140 98.4 136.8 91.7 139.9 86.4 134.9 86.4 133 91.5 132.7 90.8 132.7 81.4 128.4 81.4 128.4 98.4"/>
        <path class="cls-1" d="M96.7,91.5h.4c.7,0,1.9,0,1.9,1.4s-1.1,1.5-1.8,1.5h-.5v-2.9ZM92.1,98.4h7.1c2.2,0,4.6-1.2,4.6-4.7s-.8-3.2-2.5-4.1c1.8-1,2.1-1.9,2.1-3.4,0-3.6-3.4-4.9-5.1-4.9h-6.2v17.1ZM96.7,87.9v-2.4h.3c.7,0,1.5,0,1.5,1.2s-.7,1.3-1.4,1.3h-.4Z"/>
        <path class="cls-1" d="M108.8,92.3c0-.9.4-2.3,1.1-2.3s1.1,1.4,1.1,2.3-.2,2.6-1,2.6-1.2-1.6-1.2-2.5ZM110.9,98.4h4.6v-12.1h-4.6v1.4c.1,0,0,0,0,0-.6-1.2-1.5-1.7-2.6-1.7-2.8,0-3.8,3.3-3.8,6.4s1.3,6.2,3.7,6.2,1.9-.7,2.7-1.9h0v1.6Z"/>
        <path class="cls-1" d="M44.5,85.5h.3c1.7,0,2.7,2.2,2.7,4.6s-1.2,4.1-2.7,4.1h-.3v-8.7ZM40,98.4h5.8c3.7,0,6.3-3.2,6.3-8.3s-3.2-8.8-7.4-8.8h-4.6v17.1Z"/>
        <path class="cls-1" d="M76,98.4h4.3v-12.1h-4.3v12.1ZM76.2,85.3h3.8v-3.7h-3.8v3.7Z"/>
      </g>
    </g>
  </g>
</svg>