<?xml version="1.0" encoding="UTF-8"?>
<svg xmlns="http://www.w3.org/2000/svg" version="1.1" viewBox="0 0 180 180">
  <defs>
    <style>
      .cls-1 {
        fill: #9af49b;
      }
    </style>
  </defs>
  <!-- Generator: Adobe Illustrator 28.6.0, SVG Export Plug-In . SVG Version: 1.2.0 Build 709)  -->
  <g>
    <g id="Layer_1">
      <g>
        <path class="cls-1" d="M81,85.3h-1.3c-.2-3.3-3.3-4.6-6.3-4.2-.3.3-.4.8-.3,1.2v15.3c0,.3.2.6.3.8.9.8,1.8.9,2.9.9v1h-11.4v-1h1.7c.6-.3,1.3-.8,1.5-1.4v-16.8c-2.8-.4-5.9.3-6.6,3.4,0,.3,0,.6,0,.9h-1.4v-5.9h21v5.8"/>
        <path class="cls-1" d="M100.7,85h-1.3c-.4-3.8-4.9-4.3-8-3.8-.4.2-.4.6-.4,1v6.9c3.2.2,4.1-2.1,4.3-3.5h1.3v8.4h-1.3c-.3-2.3-2-3.9-4.5-3.4v6.6c0,2,1.7,2.3,3.4,2.3v1h-11.1v-1c1.9,0,2.9-.5,2.9-3.1v-13.8c0-2-1.7-1.8-2.9-1.7v-1.1h17.6v5.4"/>
        <path class="cls-1" d="M120,85h-1.3c-.4-3.8-4.9-4.3-8-3.8-.4.2-.4.6-.4,1v6.9c3.2.2,4.1-2.1,4.3-3.5h1.3v8.4h-1.3c-.3-2.3-2-3.9-4.5-3.4v6.6c0,2,1.7,2.3,3.4,2.3v1h-11.1v-1c1.9,0,2.9-.5,2.9-3.1v-13.8c0-2-1.7-1.8-2.9-1.7v-1.1h17.6v5.4"/>
      </g>
    </g>
  </g>
</svg>