<?xml version="1.0" encoding="UTF-8"?>
<svg xmlns="http://www.w3.org/2000/svg" xmlns:xlink="http://www.w3.org/1999/xlink" version="1.1" viewBox="0 0 180 180">
  <defs>
    <style>
      .cls-1 {
        fill: #9af49b;
      }

      .cls-2 {
        clip-path: url(#clippath);
      }
    </style>
    <clipPath id="clippath">
      <path class="cls-1" d="M59.8,92.2c1,1,1.5,2.1,1.5,3.3s0,.8-.2,1.2c-.3,1.1-.9,1.9-1.2,2.3-1.4-5.5-4.1-8.1-5-8.8.8-.1,2.7,0,4.9,2.1ZM55.9,101c-1.5-1.5-1.6-5.3-1.6-7.2s0-.3,0-.4v-.4s0,0,0-.1c0-1.2.1-2,.2-2.4,3.3,2.4,4.9,8.5,5,9-.4,2.4-2,2.2-2.1,2.2h0s0,0,0,0c-.6,0-1.1-.2-1.5-.6ZM40.2,97.7c0,0,0-.2,0-.2,0-1.7,1.2-3.4,3.5-4.9,2.9-1.9,5.2-2.4,6.6-2.4,1.2,0,2,.2,2.3.3-1.8,4.3-4.1,7.2-5.8,8.9-1.6,1.6-2.9,2.4-3.1,2.6-2-1-3.3-2.6-3.4-4.2ZM47.5,99.8c1.6-1.8,3.8-4.7,5.4-8.8.3,1.1.5,2.3.5,3.5s-.3,3.1-.5,4.3c-.5,2.3-1.3,4-1.3,4,0,0-1.5,3.4-3.9,3.4s-3.1-3-3.3-3.4c.3-.2,1.6-1.2,3.2-2.9ZM59,83.1c.7-1.4,1-2.5,1.1-2.9.3.2.9.8,1.1,1.8,0,.2,0,.5,0,.8,0,1-.4,2-1.1,3.2-1.1,1.7-2.4,2.7-3.9,2.9-.8.1-1.4,0-1.7,0,2.3-1.9,3.7-4.1,4.5-5.7ZM54.1,85.9c0-.3,0-.5,0-.7v-.3c.1-1.7.3-6.1,2.1-7.6.4-.4,1-.6,1.5-.5,0,0,1.8.2,2,3,0,.2-.4,1.5-1.2,3.1-.8,1.6-2.1,3.8-4.3,5.5,0-.4-.1-1.4-.1-2.4ZM45.9,74.2c.6-.4,1.2-.4,1.9-.3,1.5.4,2.8,1.5,3.7,3.4,1,2,1.5,4.7,1.6,7.8,0,0,0,0,0,.1,0,.3,0,1.4-.4,2.4-.2-.6-.8-2-1.8-3.6-1.2-2-3.4-4.9-6.9-7,0-.4.6-2.1,1.8-2.8ZM44.7,87.9c-2.8-1.2-4.7-3.5-4.7-5.8h0c0-1.9,1.3-3.5,3.5-4.3.3.1,1.8.9,3.7,2.7,2.3,2.2,4.1,4.8,5.3,7.7-.2.1-.8.5-1.9.7-1.2.2-3.1.2-5.9-1Z"/>
    </clipPath>
  </defs>
  <!-- Generator: Adobe Illustrator 28.6.0, SVG Export Plug-In . SVG Version: 1.2.0 Build 709)  -->
  <g>
    <g id="Layer_1">
      <g>
        <g>
          <path class="cls-1" d="M59.8,92.2c1,1,1.5,2.1,1.5,3.3s0,.8-.2,1.2c-.3,1.1-.9,1.9-1.2,2.3-1.4-5.5-4.1-8.1-5-8.8.8-.1,2.7,0,4.9,2.1ZM55.9,101c-1.5-1.5-1.6-5.3-1.6-7.2s0-.3,0-.4v-.4s0,0,0-.1c0-1.2.1-2,.2-2.4,3.3,2.4,4.9,8.5,5,9-.4,2.4-2,2.2-2.1,2.2h0s0,0,0,0c-.6,0-1.1-.2-1.5-.6ZM40.2,97.7c0,0,0-.2,0-.2,0-1.7,1.2-3.4,3.5-4.9,2.9-1.9,5.2-2.4,6.6-2.4,1.2,0,2,.2,2.3.3-1.8,4.3-4.1,7.2-5.8,8.9-1.6,1.6-2.9,2.4-3.1,2.6-2-1-3.3-2.6-3.4-4.2ZM47.5,99.8c1.6-1.8,3.8-4.7,5.4-8.8.3,1.1.5,2.3.5,3.5s-.3,3.1-.5,4.3c-.5,2.3-1.3,4-1.3,4,0,0-1.5,3.4-3.9,3.4s-3.1-3-3.3-3.4c.3-.2,1.6-1.2,3.2-2.9ZM59,83.1c.7-1.4,1-2.5,1.1-2.9.3.2.9.8,1.1,1.8,0,.2,0,.5,0,.8,0,1-.4,2-1.1,3.2-1.1,1.7-2.4,2.7-3.9,2.9-.8.1-1.4,0-1.7,0,2.3-1.9,3.7-4.1,4.5-5.7ZM54.1,85.9c0-.3,0-.5,0-.7v-.3c.1-1.7.3-6.1,2.1-7.6.4-.4,1-.6,1.5-.5,0,0,1.8.2,2,3,0,.2-.4,1.5-1.2,3.1-.8,1.6-2.1,3.8-4.3,5.5,0-.4-.1-1.4-.1-2.4ZM45.9,74.2c.6-.4,1.2-.4,1.9-.3,1.5.4,2.8,1.5,3.7,3.4,1,2,1.5,4.7,1.6,7.8,0,0,0,0,0,.1,0,.3,0,1.4-.4,2.4-.2-.6-.8-2-1.8-3.6-1.2-2-3.4-4.9-6.9-7,0-.4.6-2.1,1.8-2.8ZM44.7,87.9c-2.8-1.2-4.7-3.5-4.7-5.8h0c0-1.9,1.3-3.5,3.5-4.3.3.1,1.8.9,3.7,2.7,2.3,2.2,4.1,4.8,5.3,7.7-.2.1-.8.5-1.9.7-1.2.2-3.1.2-5.9-1Z"/>
          <g class="cls-2">
            <path class="cls-1" d="M53.2,117.9c8.4,0,15.1-12.7,15.1-28.4,0-15.8-6.8-28.6-15.2-28.7-8.4,0-15.1,12.7-15.1,28.4,0,15.8,6.8,28.6,15.2,28.7Z"/>
          </g>
        </g>
        <path class="cls-1" d="M139.9,82.7c0-.5-.2-.9-.5-1.2-.3-.4-.7-.5-1.2-.5s-.9.2-1.2.5c-.2.2-.4.5-.4.7,0,.1,0,.3,0,.5,0,.5.2.9.5,1.2.3.3.7.5,1.2.5s.9-.1,1.2-.5c.3-.3.5-.7.5-1.2ZM140,98.8c-.2-.4-.2-1.7-.2-3.3v-7.1c0-1.5.1-2.8-1.3-2.8s-1.3.3-2.4.9c.5.4.7,1.1.7,2.6v6.4c0,1.8,0,2.9-.2,3.3h3.4ZM132.1,99.1c-1.3,0-2.3-.4-2.9-1.2-.4-.6-.6-1.6-.6-3v-7.2h-2v-1.6l2-.2.2-3.1,2.7-.2v3.3h3.3v1.8h-3.3v7.3c0,1.4.6,2.1,1.7,2.1s1.4-.2,2.2-.6l.2,1.7c-1.2.6-2.4.9-3.5.9ZM90.1,96.1c-.7.6-1.6,1-2.5,1s-2.1-.6-2.1-1.9c0-2,1.9-3.4,4.7-2.7v3.6ZM93.3,98.8c-.2-.7-.2-2-.2-3v-5.5c0-3.6-1.6-4.8-5.1-4.8s-2.5.3-3.7.8l-.3,1.8c1.2-.6,2.6-.9,3.9-.9,2.5,0,2.3,1.9,2.3,3.8-3.4-1-7.7.3-7.6,4.4,0,2.3,1.8,3.6,3.9,3.6,1.5,0,2.7-.6,3.7-1.6l.2,1.3h2.9ZM122.2,98.8c.1-.3.1-.9.1-1.6,0-.5,0-1.2,0-1.9v-5.1c0-1.7-.5-2.5-1.8-2.5s-2.2.7-3.1,1.5v6.4c0,.7,0,1.4,0,2,0,.6,0,1,.1,1.3h-3.2c.1-.5.1-1.6.1-3.1v-6.6c0-1.6-.3-2.3-.8-2.6,1.1-.6,1.8-.8,2.3-.8.9,0,1.1.8,1.2,1.9,1.1-1.1,2.7-2,4.2-2s2.5.5,3.2,1.5c.1.2.3.6.3.9.1.6.2,1.3.2,2.2v5.4c0,2.1,0,3,.2,3.3h-3.2ZM101.9,87.8c-.2,0-.4,0-.7,0-.9,0-1.8.5-2.7,1.5v6.5c0,1.9,0,2.8.2,3h-3.2c0-.2,0-.4,0-.7,0-.6,0-1.4,0-2.3v-6.7c0-1.5-.2-2.3-.8-2.6.9-.5,1.8-.8,2.3-.8,1,0,1.2.9,1.2,1.9.9-1.4,2-2,3.3-2s.5,0,.7,0l-.4,2.2ZM112.3,98.8c-.2-.5-.2-2-.2-3v-5.5c0-3.6-1.6-4.8-5.1-4.8s-2.5.3-3.8.8l-.3,1.8c.4-.2.9-.4,1.4-.6.8-.2,1.7-.3,2.5-.3,2.5,0,2.3,1.9,2.3,3.8-3.4-1-7.7.3-7.6,4.4,0,2.3,1.8,3.6,3.9,3.6,1.5,0,2.7-.6,3.7-1.6,0,0,0,.8.2,1.3h2.9ZM109.2,96.1c-.7.6-1.6,1-2.5,1s-2.1-.6-2.1-1.9c0-2,1.9-3.4,4.7-2.7v3.6ZM80,83c-1.5-.6-3-.9-4.5-.9s-3.5.7-4.8,2.1c-1.3,1.4-2,3.1-2,5.3s.6,4.2,1.8,5.5c1.2,1.4,2.7,2.1,4.8,2.1s2-.1,2.7-.4v-4.6c0-.3,0-.6,0-.9h-2.4c0-.8-.1-1.7-.3-2.2l5.9.2c-.2.7-.2,1.6-.2,3v2.3c0,1.6,0,2.8.2,3.3-2.1.8-4.1,1.3-6.2,1.3-3.1,0-5.4-.8-7.2-2.5-1.7-1.7-2.7-4-2.7-6.9s1.1-5.3,2.9-7.2c1.9-1.8,4.3-2.8,7.4-2.8s3.6.3,5,.8l-.5,2.3"/>
      </g>
    </g>
  </g>
</svg>