<?xml version="1.0" encoding="UTF-8"?>
<svg xmlns="http://www.w3.org/2000/svg" version="1.1" viewBox="0 0 180 180">
  <defs>
    <style>
      .cls-1 {
        fill: #9af49b;
      }
    </style>
  </defs>
  <!-- Generator: Adobe Illustrator 28.6.0, SVG Export Plug-In . SVG Version: 1.2.0 Build 709)  -->
  <g>
    <g id="Layer_1">
      <g>
        <path class="cls-1" d="M120.8,88.8h-.8l-.8,3.1c.8,0,2.2-.5,2.5-1.7.2-.9-.2-1.4-.9-1.4Z"/>
        <path class="cls-1" d="M129.3,99c0-.2-1.2-3.4-2-5.5.8-.7,1.6-1.9,1.8-3.8.2-2-.5-3.2-1.1-3.9-1.2-1.3-3.2-2-5.9-2h-9l-.4,1.4h-10.9l1.2-1.4h-9.2l-2.1,2.4.3-1h-9.4l-2.4,9.4h-4.1l2.4-9.4h-7.8l.4-1.4s0,0-2,0c0,0,0,0,0,0,.8-.9,1.1-2.1.8-3.1-.4-1.6-2-2.7-4-2.7s-1,0-1.4.2c-1.1.3-2.1.9-2.8,1.7-.2.3-.4.6-.6,1-.6-.6-1.4-1-2.4-1.3-.5-.1-1-.2-1.4-.2-2,0-3.6,1.1-4,2.7-.3,1.1,0,2.2.8,3.1,0,0,0,0,0,0h-1.6l-.3,1.2s-1.4,5.5-2.1,8c-.5,2-.2,3.8.9,5.2.9,1.2,2.8,2.6,6.5,2.6s6.1-.7,7.9-2.3v.5c-.1,0,13.3,0,13.3,0h0s9.4,0,9.4,0l.2-.8.4,1.5h9.3l-.2-.7h20.6s.5-1.9.5-1.9l1,2.6h9.9s-.7-2-.7-2ZM64.9,79.6c1.7-.4,3.3.2,3.6,1.4.3,1.2-.8,2.5-2.5,3-1.7.4-3.3-.2-3.6-1.4-.3-1.2.8-2.5,2.5-3ZM54.9,82.4c.3-1.2,1.9-1.8,3.6-1.4,1.7.4,2.8,1.8,2.5,3-.3,1.2-1.9,1.8-3.6,1.4-1.7-.4-2.8-1.8-2.5-3ZM57.6,100.5c-4.5,0-6.8-2.4-5.9-5.9.6-2.4,2.1-8,2.1-8h3.1c2.1,0,3,.3,2.6,2.1-.6,2.2-1.7,6.6-2,7.6-.2.7.3,1,1,1,1,0,1.4-.3,1.6-1,0-.3,2.3-9,2.3-9,.4-1.7,1.6-2.1,3.7-2.1h3.1s-1.7,6.6-2.4,9.4c-.6,2.4-2,5.9-9.2,5.9ZM79.2,98.8h-11.9l3.1-12.1h6.2l-2.4,9.4h5.7l-.7,2.8ZM90,99.5l-1.6-5.9-1.3,5.2h-6.2l3.1-12.1h6.2l-1.3,5.2,5.9-6.6h5.2l-5.6,6.6,1.9,7.6h-6.2ZM109.7,91.5l-.7,2.8h-4.1l-.5,1.7h5.7l-.7,2.8h-11.9l3.2-12.1h11.9l-.8,3.1h-5.7l-.5,1.7h4.2ZM121.1,99.5l-2.4-5.9-1.3,5.2h-6.5l3.5-13.5h7.8c3.1,0,5.8,1.1,5.4,4.3-.3,2-1.2,2.9-2.2,3.4.6,1.5,2.4,6.6,2.4,6.6h-6.7Z"/>
      </g>
    </g>
  </g>
</svg>