<?xml version="1.0" encoding="UTF-8"?>
<svg xmlns="http://www.w3.org/2000/svg" version="1.1" viewBox="0 0 180 180">
  <defs>
    <style>
      .cls-1 {
        fill-rule: evenodd;
      }

      .cls-1, .cls-2 {
        fill: #9af49b;
      }
    </style>
  </defs>
  <!-- Generator: Adobe Illustrator 28.6.0, SVG Export Plug-In . SVG Version: 1.2.0 Build 709)  -->
  <g>
    <g id="Layer_1">
      <g>
        <path class="cls-1" d="M25,88.6c0-3.7,1.5-6.9,4-9.2l1.8,1.9c-2,1.8-3.2,4.4-3.2,7.3,0,5.5,4.5,10.1,10.1,10.1s10-4.5,10-10.1-1.2-5.5-3.1-7.3l1.8-1.9c2.5,2.3,4,5.6,4,9.2,0,7-5.7,12.7-12.7,12.7s-12.7-5.7-12.7-12.7Z"/>
        <path class="cls-1" d="M29.8,88.4c0-4,2.9-7.2,6.8-7.8l1.2,5.3,1.1-5.3c3.8.6,6.8,3.8,6.8,7.8s-1.4,5.1-3.5,6.6l-1.5-2.1c1.4-.9,2.3-2.6,2.3-4.4s-.8-3.3-2.1-4.2l-1.8,8.4h-2.6l-1.8-8.5c-1.3.9-2.2,2.5-2.2,4.2s.9,3.4,2.3,4.3l-1.4,2.2c-2.1-1.4-3.5-3.8-3.5-6.6Z"/>
        <path class="cls-1" d="M60.4,96.1h-2.6v-9.4c0-.6-.3-.9-.9-.9s-.9.3-1.7.8v9.5h-2.5v-12.2h2.4v1.2c.7-.6,1.1-.9,1.4-1.1.4-.3.9-.4,1.5-.4s1.1.1,1.4.4c.3.2.6.6.8,1.1,1-1,1.9-1.5,2.8-1.5,1.6,0,2.4.9,2.4,2.6v9.9h-2.6v-9.4c0-.6-.3-.9-.9-.9s-.9.3-1.6.8v9.5Z"/>
        <path class="cls-1" d="M69,88.4h2.8v-.6c0-1.3-.5-2-1.4-2s-1.4.7-1.4,2v.6ZM74.3,88.2v2.2h-5.3v1.8c0,1.3.5,2,1.4,2s1.4-.7,1.4-2v-.3h2.6c0,2.9-1.4,4.4-3.9,4.4s-3.9-1.5-3.9-4.5v-3.6c0-3,1.3-4.5,3.9-4.5,2.6,0,3.9,1.5,3.9,4.5Z"/>
        <path class="cls-1" d="M79,91.7l1.5-7.8h2.6l-3.2,13.1c-.3,1.1-.7,1.8-1.2,2.3-.5.4-1.3.7-2.3.7h-1.1v-2.1h.6c1.1,0,1.7-.7,1.7-2s0-.9-.3-1.6l-2.6-10.4h2.6l1.7,7.8Z"/>
        <path class="cls-2" d="M144.1,85.5c-1.3,1.2-1.9,2.8-1.9,4.5,0,3.5,2.9,6.3,6.4,6.3s6.4-2.8,6.4-6.3-.6-3.2-1.9-4.5c-1.3-1.3-2.8-1.9-4.5-1.9-1.7,0-3.2.6-4.5,1.9ZM136.7,90.4h4.3v-1.9h-4.3v-2.7h4.7v-1.9h-6.7v12.3h6.7v-1.9h-4.7v-3.8h0ZM107.1,83.9v12.3h2v-12.3h-2ZM98.3,96.2c2.3,0,4-.5,5.1-1.6,1.3-1.2,2-2.7,2-4.6s-.7-3.5-2-4.7c-1.1-1-2.9-1.5-5.1-1.5h-2.6v12.3h2.6ZM118.3,93.5l1.1,2.7h2.2l-5.2-12.3h-1l-5.4,12.3h2.2l1.2-2.8c0,0,0-.1,0-.2,0,0,.1,0,.2,0,.7.2,1.5.4,2.2.4s1.5-.2,2-.3c.2,0,.3-.1.4-.2,0,.1,0,.2,0,.3ZM131.3,87.6l1.5-1.3c-1.3-1.8-3.1-2.6-5.2-2.6-3.5,0-6.4,2.8-6.4,6.4s2.8,6.3,6.3,6.3,1.7-.2,2.5-.6c.8-.4,1.5-.9,2-1.5.6-.6.9-1.3,1.1-2,.2-.6.3-1.4.2-2.3v-.4h-5.6v1.9h3.4c0,.7-.5,1.4-1.2,2-.7.6-1.6.9-2.6.9s-2.1-.5-3-1.4c-.8-.8-1.3-1.8-1.3-3s.4-2.3,1.3-3.2c.8-.9,1.8-1.3,3-1.3,1.6,0,2.8.7,3.7,2ZM151.7,86.9c.9.8,1.3,1.9,1.3,3.1s-.4,2.3-1.3,3.1c-.9.9-1.9,1.3-3.1,1.3-2.4,0-4.4-2-4.4-4.4s.4-2.3,1.3-3.1c.8-.9,1.9-1.3,3.1-1.3,1.1,0,2.2.4,3.1,1.3ZM98.4,85.8c1.7,0,2.9.4,3.7,1,.9.8,1.4,1.8,1.4,3.2s-.4,2.3-1.3,3.1c-.7.7-2,1.1-3.8,1.1h-.6v-8.4h.6ZM114.1,91.5c0,0,.1-.2.1-.3l1.6-3.8,1.5,3.8c0,0,0,.2.1.3h-.2c-.4.2-.9.2-1.4.2s-.9,0-1.4-.2c-.1,0-.2,0-.3,0Z"/>
        <path class="cls-2" d="M89.5,72.7h-.2v34.5h.2v-34.5Z"/>
      </g>
    </g>
  </g>
</svg>