<?xml version="1.0" encoding="UTF-8"?>
<svg id="Layer_1" xmlns="http://www.w3.org/2000/svg" version="1.1" viewBox="0 0 100 27.2">
  <!-- Generator: Adobe Illustrator 30.1.0, SVG Export Plug-In . SVG Version: 2.1.1 Build 136)  -->
  <defs>
    <style>
      .st0 {
        fill: #fff;
      }
    </style>
  </defs>
  <path class="st0" d="M24.4,17.5h10.2c2.2,0,3.9-1.8,3.9-3.9v-5.5c0-2.2-1.8-3.9-3.9-3.9h-14.1v9.4c0,2.2,1.8,3.9,3.9,3.9ZM22.9,13.1v-6.5h11.2c1.1,0,2,.9,2,2v4.5c0,1.1-.9,2-2,2h-9.2c-1.1,0-2-.9-2-2Z"/>
  <path class="st0" d="M59,8.1c0-2.2-1.8-3.9-3.9-3.9h-10.2c-2.2,0-3.9,1.8-3.9,3.9v5.5c0,2.2,1.8,3.9,3.9,3.9h14.1s0-9.4,0-9.4ZM56.6,15.1h-11.2c-1.1,0-2-.9-2-2v-4.5c0-1.1.9-2,2-2h9.2c1.1,0,2,.9,2,2v6.5Z"/>
  <path class="st0" d="M14.1,4.2H2.4V.7c0-.4-.3-.7-.7-.7H.7C.3,0,0,.3,0,.7v7.4s0,0,0,0v5.5c0,2.2,1.8,3.9,3.9,3.9h10.2c2.2,0,3.9-1.8,3.9-3.9v-5.5c0-2.2-1.8-3.9-3.9-3.9ZM15.6,13.1c0,1.1-.9,2-2,2H4.4c-1.1,0-2-.9-2-2v-6.5h11.2c1.1,0,2,.9,2,2v4.5Z"/>
  <path class="st0" d="M75.6,4.2h-10.2c-2.2,0-3.9,1.8-3.9,3.9v5.5c0,2.2,1.8,3.9,3.9,3.9h11.7c-.1,1-1.6,1.8-3.5,1.8h-3.1c-.4,0-.7.3-.7.7v1c0,.4.3.7.7.7h3.1s1.6,0,1.6,0c2.4,0,4.3-1.9,4.3-4.2h0v-9.4c0-2.2-1.8-3.9-3.9-3.9ZM63.9,13.1v-4.5c0-1.1.9-2,2-2h9.2c1.1,0,2,.9,2,2v6.5h-11.2c-1.1,0-2-.9-2-2Z"/>
  <path class="st0" d="M99.3,4.2h-1.1c-.4,0-.7.3-.7.7v10.2h-11.2c-1.1,0-2-.9-2-2V4.9c0-.4-.3-.7-.7-.7h-1.1c-.4,0-.7.3-.7.7v8.7c0,2.2,1.8,3.9,3.9,3.9h11.7c-.1,1-1.6,1.8-3.5,1.8h-3.1c-.4,0-.7.3-.7.7v1c0,.4.3.7.7.7h3.1s1.6,0,1.6,0c2.4,0,4.3-1.9,4.3-4.2h0V4.9c0-.4-.3-.7-.7-.7Z"/>
  <g>
    <path class="st0" d="M3,25.5v-1.5h-.6v-.5h.6v-.7h.6v.7h1.3v.5h-1.3v1.4c0,.3,0,.4.4.4h.9v.5h-1.1c-.6,0-.8-.2-.8-.7Z"/>
    <path class="st0" d="M5.7,22.4h.6v1.5h0c.2-.3.5-.5,1.2-.5s1.4.3,1.4,1.2v1.5h-.6v-1.4c0-.6-.2-.8-1-.8s-1.1.1-1.1.8v1.4h-.6v-3.8Z"/>
    <path class="st0" d="M9.7,24.9c0-1.1.3-1.4,1.7-1.4s1.6.3,1.6,1.2v.3h-2.7c0,.6.1.7,1.1.7s1-.1,1-.5h0s.6,0,.6,0h0c0,.7-.4.9-1.6.9s-1.7-.3-1.7-1.4ZM12.5,24.6h0c0-.5-.2-.6-1.1-.6s-1,.1-1.1.6h2.1Z"/>
    <path class="st0" d="M15.9,24.9c0-1.1.3-1.4,1.7-1.4s1.6.3,1.6,1.2v.3h-2.7c0,.6.1.7,1.1.7s1-.1,1-.5h0s.6,0,.6,0h0c0,.7-.4.9-1.6.9s-1.7-.3-1.7-1.4ZM18.6,24.6h0c0-.5-.2-.6-1.1-.6s-1,.1-1.1.6h2.1Z"/>
    <path class="st0" d="M19.7,23.5h.6l1.1,2.2h0l1.1-2.2h.6l-1.4,2.7h-.7l-1.4-2.7Z"/>
    <path class="st0" d="M23.7,24.9c0-1.1.3-1.4,1.7-1.4s1.6.3,1.6,1.2v.3h-2.7c0,.6.1.7,1.1.7s1-.1,1-.5h0s.6,0,.6,0h0c0,.7-.4.9-1.6.9s-1.7-.3-1.7-1.4ZM26.5,24.6h0c0-.5-.2-.6-1.1-.6s-1,.1-1.1.6h2.1Z"/>
    <path class="st0" d="M28,23.5h.6v.4h0c.2-.3.5-.5,1.2-.5s1.4.3,1.4,1.2v1.5h-.6v-1.4c0-.6-.2-.8-1-.8s-1.1.1-1.1.8v1.4h-.6v-2.7Z"/>
    <path class="st0" d="M32.4,25.5v-1.5h-.6v-.5h.6v-.7h.6v.7h1.3v.5h-1.3v1.4c0,.3,0,.4.4.4h.9v.5h-1.1c-.6,0-.8-.2-.8-.7Z"/>
    <path class="st0" d="M37,24.9c0-1.1.3-1.4,1.6-1.4s1.6.3,1.6,1.1h0s-.6,0-.6,0h0c0-.5-.2-.6-1.1-.6s-1.1.1-1.1.9.1.9,1.1.9,1.1-.1,1.1-.6h0s.6,0,.6,0h0c0,.9-.3,1.2-1.6,1.2s-1.6-.3-1.6-1.4Z"/>
    <path class="st0" d="M41.1,24.9c0-1.1.3-1.4,1.7-1.4s1.7.3,1.7,1.4-.3,1.4-1.7,1.4-1.7-.3-1.7-1.4ZM42.8,25.7c1,0,1.2-.1,1.2-.9s-.1-.9-1.2-.9-1.2.1-1.2.9.1.9,1.2.9Z"/>
    <path class="st0" d="M45.5,23.5h.6v.4c.1-.3.4-.5,1.1-.5s1,.1,1.1.5h0c.2-.4.5-.5,1.2-.5.9,0,1.3.3,1.3,1.2v1.5h-.6v-1.5c0-.4-.2-.7-.9-.7s-.9.2-.9.8v1.4h-.6v-1.5c0-.4-.1-.7-.9-.7s-.9.2-.9.8v1.4h-.6v-2.7Z"/>
    <path class="st0" d="M51.7,23.5h.6v.4h0c.2-.3.4-.5,1.3-.5s1.5.3,1.5,1.4-.3,1.4-1.5,1.4-1.1-.1-1.3-.5h0v1.4h-.6v-3.6ZM53.4,25.7c.9,0,1.1-.1,1.1-.9s-.2-.9-1.1-.9-1.1,0-1.1.7v.3c0,.6.3.7,1.1.7Z"/>
    <path class="st0" d="M55.9,25.4c0-.6.4-.8,1.3-.8h1.3c0-.5-.1-.6-.9-.6s-.9,0-.9.4h0s-.6,0-.6,0h0c0-.7.3-.9,1.5-.9s1.5.3,1.5,1v1.7h-.6v-.4h0c-.1.3-.5.4-1.2.4s-1.3-.2-1.3-.8ZM57.3,25.8c.9,0,1.2-.1,1.2-.6h0c0-.1-1.2-.1-1.2-.1-.7,0-.9,0-.9.4,0,.3.2.4.9.4Z"/>
    <path class="st0" d="M60,23.5h.6v.4h0c.2-.3.5-.5,1.2-.5s1.4.3,1.4,1.2v1.5h-.6v-1.4c0-.6-.2-.8-1-.8s-1.1.1-1.1.8v1.4h-.6v-2.7Z"/>
    <path class="st0" d="M64.1,26.7h.5c.3,0,.4,0,.6-.4h0c0-.1-1.5-2.8-1.5-2.8h.6l1.1,2.2h0l1.1-2.2h.6l-1.6,3c-.3.5-.5.6-1,.6h-.6v-.5Z"/>
  </g>
</svg>